<svg width="401" height="306" viewBox="0 0 401 306" fill="none" xmlns="http://www.w3.org/2000/svg">
<path d="M75.77 137.86H31.15C28.3886 137.86 26.15 140.099 26.15 142.86V165.14C26.15 167.901 28.3886 170.14 31.15 170.14H75.77C78.5314 170.14 80.77 167.901 80.77 165.14V142.86C80.77 140.099 78.5314 137.86 75.77 137.86Z" fill="#00BEB4"/>
<path d="M53.46 182.76L60.53 166H46.39L53.46 182.76Z" fill="#00BEB4"/>
<path d="M53.29 148.46H66.06V150.33L72.32 146.72L66.06 143.11V144.97H53.29V148.46Z" fill="#333333"/>
<path d="M72.32 155.8H59.55V153.93L53.29 157.54L59.55 161.15V159.29H72.32V155.8Z" fill="white"/>
<path d="M45.45 159.09L44.84 159.31C44.84 159.31 42.94 157.15 41.96 154.79C40.98 152.43 40.94 149.56 40.94 149.56L41.38 149.37L38.68 142.91C38.2 143.29 37.74 143.77 37.37 144.4C35.84 146.98 35.99 150.95 37.53 154.82C39.07 158.69 40.71 162.15 43.71 164.32C45.48 165.6 47 165.83 48.17 165.64L45.44 159.1L45.45 159.09Z" fill="#333333"/>
<path d="M47.39 158.33L46.55 158.64L49.31 165.26C49.62 165.16 49.9 165.03 50.15 164.9C50.86 164.51 51.18 163.65 50.88 162.89L49.44 159.25C49.12 158.44 48.21 158.04 47.4 158.33H47.39Z" fill="#333333"/>
<path d="M40.8 141.77C40.46 141.89 40.09 142.06 39.72 142.28L42.48 148.88L43.41 148.49C44.22 148.15 44.6 147.24 44.29 146.42L42.84 142.7C42.53 141.89 41.62 141.47 40.81 141.77H40.8Z" fill="#333333"/>
<path d="M316.39 276V201.52C316.39 201.52 317.22 181.45 306.67 175.66C296.12 169.87 251.64 172.97 251.64 172.97V276H316.39Z" fill="#00BEB4"/>
<path d="M237.74 103.24C237.74 103.24 240.43 125.79 241.46 127.65L242.49 129.51L247.66 133.03C247.66 133.03 237.73 147.1 225.52 149.37C213.31 151.65 214.35 144.4 214.35 144.4L216.21 140.47L213.73 118.95C213.73 118.95 235.87 108.81 237.73 103.23L237.74 103.24Z" fill="#E9A89A"/>
<path d="M254.08 134.9L246.01 131.38C246.01 131.38 240.84 139.86 228.84 144.83C216.84 149.8 216.63 146.9 216.01 144.83C215.39 142.76 216.22 140.49 216.22 140.49L215.33 133.25L210.53 134.85L193.87 269.6L236.7 271.67L254.08 134.91V134.9Z" fill="#DDDDDD"/>
<path d="M214.57 133.38C214.57 133.38 211.67 140.07 208.98 155.79C206.29 171.51 203.81 198 203.19 216.2C202.57 234.4 202.16 275.99 202.16 275.99H148.16C147.54 275.99 143.82 255.51 143.82 255.51C143.82 255.51 167.41 235.3 168.65 231.99C169.48 229.78 169.06 188.89 172.58 170.06C176.1 151.23 180.65 147.44 190.17 142.75C200.01 137.9 214.58 133.37 214.58 133.37L214.57 133.38Z" fill="#333333"/>
<path d="M186.43 252.29C186.71 252.29 186.93 252.07 186.93 251.79C186.93 250.31 187.19 229.29 187.45 208.97C187.7 188.64 187.97 167.62 187.97 166.14C187.97 165.86 187.75 165.64 187.47 165.64C187.19 165.64 186.97 165.86 186.97 166.14C186.97 167.62 186.71 188.64 186.45 208.96C186.2 229.29 185.93 250.31 185.93 251.79C185.93 252.07 186.15 252.29 186.43 252.29V252.29Z" fill="white"/>
<path d="M294.01 247.24L294.42 276H231.52C231.52 276 228.83 251.59 229.86 249.31C230.89 247.03 294 247.24 294 247.24H294.01Z" fill="#333333"/>
<g style="mix-blend-mode:multiply">
<path d="M224.01 127.03C221.45 129.1 217.94 130.75 215.21 131.76L213.73 118.96C213.73 118.96 230.36 111.34 236 105.68C234.82 112.12 231.92 120.65 224.01 127.03Z" fill="#8E9BBB"/>
</g>
<path d="M194.29 61.24C194.29 61.24 189.95 68.69 189.12 77.79C188.29 86.89 189.12 110.27 196.57 120.2C204.02 130.13 219.54 127.23 226.57 121.23C233.03 115.72 239.4 109.64 241.05 97.64C242.71 85.64 237.53 62.88 222.84 58.12C208.15 53.36 194.29 61.22 194.29 61.22V61.24Z" fill="#E9A89A"/>
<path d="M175.63 262.99C175.63 262.99 176.36 262.99 177.47 262.96C177.73 262.95 178.02 262.96 178.32 262.95C179.39 262.92 180.69 262.89 182 262.85C182.29 262.84 182.59 262.83 182.88 262.82C184.18 262.79 185.29 262.95 186.33 262.89H186.36C186.58 262.88 186.9 262.91 187.16 262.92C187.29 262.93 187.41 262.94 187.49 262.93C188.09 262.82 188.21 262.68 188.86 262.39C189.7 262.01 201.07 259.47 210.32 259.53C219.56 259.57 227.85 260.2 229.2 259.07C230.56 257.92 231.38 246.31 223.49 245.55L213.79 249.23C213.79 249.23 191.64 246.6 183.52 252.59C175.38 258.58 175.63 262.99 175.63 262.99V262.99Z" fill="#FF9D8C"/>
<path d="M186.36 262.89C186.58 262.88 186.9 262.91 187.16 262.92C187.36 262.6 187.78 262.02 188.01 261.78C190.51 259.23 196.55 257.58 198.74 257.05C198.94 257 199.07 256.8 199.02 256.6C198.98 256.4 198.77 256.28 198.56 256.32C195.37 257.09 188.6 259.06 186.68 262.29C186.62 262.38 186.46 262.69 186.36 262.89V262.89Z" fill="#333333"/>
<path d="M181.99 262.85C182.28 262.85 182.58 262.84 182.87 262.82C185.6 257.84 190.07 256.41 195.58 254.64L195.91 254.53C196.1 254.47 196.21 254.25 196.15 254.05C196.09 253.86 195.88 253.75 195.67 253.81L195.35 253.92C189.51 255.79 184.82 257.3 181.98 262.85H181.99Z" fill="#333333"/>
<path d="M177.47 262.96C177.73 262.96 178.02 262.96 178.32 262.95C179.98 259.47 185.46 253.64 192.7 252.29C192.91 252.25 193.04 252.06 193.01 251.85C192.97 251.65 192.77 251.52 192.57 251.55C185.1 252.95 179.08 259.05 177.46 262.96H177.47Z" fill="#333333"/>
<path d="M236.08 87.41C236.08 87.41 231.53 85.24 228.32 79.13C225.11 73.03 225.53 67.54 225.53 67.54C225.53 67.54 219.74 66.61 211.05 69.2C202.36 71.79 192.02 75.3 183.33 70.34C174.64 65.37 174.64 57.41 178.88 54.1C183.63 50.39 193.05 52.65 193.05 52.65C193.05 52.65 189.43 49.13 191.39 47.06C193.36 44.99 200.49 47.68 200.49 47.68C200.49 47.68 209.18 40.75 225.63 41.58C242.08 42.41 249.94 53.89 250.87 66.72C251.8 79.55 247.15 92.38 247.15 92.38L236.08 87.41V87.41Z" fill="#2F1706"/>
<path d="M241.88 105.1C241.88 105.1 241.05 108.31 236.29 112.03C231.53 115.75 224.63 118.48 224.63 118.48L224.08 116.07C224.08 116.07 231.22 112.97 234.53 109.55C237.84 106.14 238.25 104.27 238.25 104.27L241.87 105.1H241.88Z" fill="#DEE1EB"/>
<path d="M223.26 114.28C219.43 114.1 217.29 117.13 217.03 119.09C216.76 121.05 218.6 123.25 222.91 121.32C228.26 118.92 227.1 114.46 223.27 114.28H223.26Z" fill="#333333"/>
<path d="M238.88 81.41C238.88 81.41 237.23 69.52 229.26 61.44C214.05 46.03 201.12 46.96 201.12 46.96C201.12 46.96 201.22 44.79 206.09 43.13C210.66 41.58 212.71 42.41 212.71 42.41C212.71 42.41 225.23 43.44 235.78 55.13C246.33 66.82 247.47 81.72 247.47 81.72L238.88 81.41Z" fill="#333333"/>
<path d="M240.01 79.97C249.97 78.28 255.53 86.07 255.94 93.94C256.35 101.8 250.64 107.78 243.01 107.18C225.84 105.84 227.8 82.04 240.01 79.97Z" fill="#DDDDDD"/>
<path d="M244.98 99.53C247.61 99.53 249.83 98.21 251.1 95.88C252.46 93.39 252.35 90.32 250.81 88.06C250.69 87.89 250.46 87.85 250.29 87.96C250.12 88.08 250.07 88.31 250.19 88.48C251.57 90.51 251.67 93.27 250.44 95.52C249.28 97.65 247.22 98.86 244.78 98.78C242.5 98.72 240.57 97.68 239.35 95.85C237.95 93.76 237.63 90.88 238.53 88.5C239.43 86.14 241.88 84.54 244.11 84.83C244.31 84.86 244.5 84.71 244.53 84.51C244.56 84.31 244.41 84.12 244.21 84.09C241.6 83.74 238.86 85.53 237.83 88.24C236.84 90.84 237.2 93.99 238.73 96.27C240.1 98.31 242.24 99.47 244.76 99.53C244.83 99.53 244.9 99.53 244.97 99.53H244.98Z" fill="#818FB3"/>
<path d="M252.22 132C252.22 132 282.43 139.45 292.98 151.45C303.53 163.45 308.5 222.62 308.7 233.59C308.9 244.56 301.25 249.11 296.7 252.21C292.15 255.31 272.08 260.9 255.94 261.73C239.8 262.56 224.49 261.73 224.49 261.73C224.49 261.73 224.54 258.21 222.06 253.04C219.76 248.24 216.84 247.25 216.84 247.25L230.7 242.28C230.7 242.28 233.13 198.79 236.91 177.73C241.25 153.52 252.22 132.01 252.22 132.01V132Z" fill="#333333"/>
<path d="M202.15 235.33C202.22 235.33 202.29 235.32 202.35 235.29C202.6 235.18 202.72 234.88 202.6 234.63C199.77 228.24 196.84 215.71 195.19 206.91L195.05 206.2C194.55 203.61 193.93 200.4 195.17 198.17C195.8 197.04 197.23 194.58 198.61 192.22C200.04 189.77 201.38 187.45 201.76 186.76C202.49 185.41 200.19 181.8 196.87 176.85C195.97 175.51 195.2 174.36 194.75 173.58C193.57 171.53 194.35 169.66 195.27 167.48L195.58 166.73C196.41 164.7 197.35 162.67 198.26 160.7C198.63 159.9 199 159.09 199.37 158.28C199.86 157.21 200.34 156.12 200.84 155.02C203.76 148.5 206.79 141.76 210.66 135.25C210.8 135.01 210.72 134.71 210.49 134.56C210.25 134.42 209.95 134.5 209.8 134.73C205.9 141.29 202.86 148.06 199.93 154.6C199.44 155.7 198.95 156.79 198.47 157.85C198.1 158.66 197.73 159.46 197.36 160.26C196.45 162.24 195.5 164.28 194.67 166.33L194.36 167.07C193.43 169.28 192.47 171.58 193.9 174.05C194.37 174.86 195.15 176.03 196.06 177.38C197.79 179.96 201.39 185.33 200.9 186.26C200.53 186.94 199.19 189.25 197.77 191.69C196.39 194.06 194.96 196.52 194.32 197.66C192.9 200.2 193.56 203.62 194.09 206.36L194.23 207.07C194.83 210.27 198.02 226.67 201.71 235.01C201.79 235.2 201.98 235.31 202.17 235.31L202.15 235.33Z" fill="white"/>
<path d="M231.64 237.09C231.77 237.09 231.9 237.04 231.99 236.94C234.34 234.57 245.68 214.94 246.52 211.25C246.98 209.23 245.82 204.1 244.7 199.14C243.83 195.3 242.93 191.33 243.19 190.25C243.57 188.64 246.47 186.27 249.27 183.98C252.66 181.21 256.16 178.35 256.84 175.77C257.61 172.84 256.95 154.5 256.52 142.37C256.36 138.01 256.24 134.56 256.24 133.33C256.24 133.05 256.02 132.83 255.74 132.83C255.46 132.83 255.24 133.05 255.24 133.33C255.24 134.58 255.36 138.03 255.52 142.4C255.93 153.74 256.61 172.72 255.88 175.51C255.28 177.77 251.76 180.65 248.65 183.19C245.58 185.7 242.69 188.06 242.23 190C241.92 191.3 242.76 195.03 243.74 199.34C244.79 203.96 245.97 209.2 245.56 211C244.73 214.62 233.6 233.88 231.29 236.21C231.1 236.41 231.1 236.72 231.29 236.92C231.39 237.02 231.51 237.07 231.64 237.07V237.09Z" fill="white"/>
<path d="M272.29 228.5C272.29 228.5 272.34 228.5 272.36 228.5C272.63 228.46 272.82 228.21 272.79 227.93C272.42 225.33 266.68 173.53 266.42 169.56C266.4 169.28 266.16 169.07 265.89 169.09C265.61 169.11 265.41 169.35 265.42 169.62C265.68 173.59 271.43 225.46 271.8 228.06C271.84 228.31 272.05 228.49 272.29 228.49V228.5Z" fill="white"/>
<path d="M231.12 242.57C231.18 242.57 231.25 242.56 231.31 242.53C232.58 242.01 238.2 240.12 245.31 237.72C259.67 232.88 279.33 226.25 283.07 224.3C283.32 224.17 283.41 223.87 283.28 223.63C283.15 223.38 282.85 223.29 282.61 223.42C278.94 225.33 258.51 232.22 244.99 236.78C237.86 239.19 232.23 241.08 230.93 241.61C230.67 241.71 230.55 242.01 230.65 242.26C230.73 242.45 230.92 242.57 231.11 242.57H231.12Z" fill="white"/>
<path d="M238.02 263.19C250.66 263.19 275.15 260.91 293.76 254.33C294.02 254.24 294.16 253.95 294.06 253.69C293.97 253.43 293.68 253.29 293.42 253.39C269.91 261.71 237.02 263.13 230.9 261.75C230.63 261.69 230.36 261.86 230.3 262.13C230.24 262.4 230.41 262.67 230.68 262.73C232 263.03 234.57 263.19 238 263.19H238.02Z" fill="white"/>
<path d="M382.66 138.98C378.74 142.43 373.77 144.64 370.33 148.63C368.98 150.2 367.76 151.87 366.5 153.52C365.59 154.72 363.14 156.71 362.75 158.21C362.58 158.87 362.61 157.97 362.79 157.31C362.79 157.28 362.81 157.26 362.82 157.23C363.16 154.18 363.41 151.12 363.52 148.05C363.63 144.99 363.44 141.92 363.63 138.87C363.9 134.56 365.25 130.39 368.77 127.69C370.49 126.37 372.7 125.57 374.29 124.1C375.79 122.71 375.19 121.12 374.31 119.57C373.48 118.12 372.48 116.69 372.16 115.02C371.79 113.12 372.51 111.16 373.47 109.55C375.52 106.11 380.06 102.27 384.37 102.79C387.96 103.22 388.37 107.36 388.31 110.24C388.26 113.04 387.98 115.84 387.96 118.64C387.93 121.52 388.42 124.35 388.46 127.22C388.53 132.1 386.27 135.82 382.69 138.97L382.66 138.98Z" fill="#00BEB4"/>
<path d="M346.21 183.76C345.12 181.15 343.86 178.72 342.32 176.35C340.21 173.1 337.86 169.93 336.44 166.29C334.99 162.57 335.2 158.6 335.06 154.69C334.96 151.81 334.1 148.95 334.33 146.06C334.44 144.68 335.24 142.44 337.03 142.67C338.42 142.85 339.25 144.57 339.78 145.68C340.71 147.6 341.36 149.65 342.05 151.67C342.32 152.46 342.58 153.26 342.92 154.02C343.12 154.46 343.75 155.54 344.35 155.4C345.37 155.15 344.44 151 344.29 150.26C343.53 146.57 342.39 143.14 342.23 139.34C342 133.83 342.43 127.28 347.82 124.26C349.23 123.47 351.01 123 352.35 124.18C353.67 125.34 354.04 127.35 354.24 129.01C354.84 134.1 353.64 138.91 352.01 143.7C350.66 147.65 349.06 151.73 348.94 155.96C348.83 160.03 350.94 163.63 351.94 167.48C353.52 173.6 353.2 176.85 353.2 178.83C353.2 181.31 353.12 183.77 352.94 186.25C352.77 188.53 352.58 190.8 352.3 193.07C352.24 193.53 352.19 194.01 352.13 194.49C353.01 192.38 353.31 189.97 354.04 187.85C355.33 184.09 356.82 180.4 358.06 176.62C359.08 173.5 360.05 170.35 361.39 167.34C362.65 164.52 364.18 161.54 366.54 159.47C367.97 158.22 369.69 157.49 371.6 157.5C372.82 157.5 373.92 157.93 375.08 158.24C376.51 158.62 377.64 158.49 378.82 157.58C382.68 154.61 383.86 149.29 386.71 145.53C388.84 142.73 393.9 137.95 397.62 141.01C399.59 142.63 400.14 145.76 400.03 148.17C399.9 151.18 398.58 153.94 397.02 156.46C395.35 159.14 393.2 161.54 391.67 164.29C390.76 165.92 390.62 167.48 390.77 169.31C390.91 171.04 391.06 172.71 390.47 174.38C388.7 179.39 383.17 178.69 378.87 178.82C375.86 178.91 372.64 179.36 369.78 180.32C366.48 181.43 364.33 183.58 363.15 186.84C362.3 189.2 361.84 191.89 360.23 193.89C359.47 194.83 358.47 195.53 357.37 196.02C355.69 196.76 350.58 197.08 350.55 196.62C350.42 195.06 349.68 193.41 349.22 191.93C348.35 189.15 347.33 186.44 346.2 183.75L346.21 183.76Z" fill="#00BEB4"/>
<path d="M322.48 182.82C322.92 179.96 322.84 176.8 324.19 174.17C324.29 173.98 324.54 173.93 324.72 174.03C325.69 174.57 325.73 176.14 325.81 177.1C325.94 178.7 325.84 180.3 326.04 181.89C326.38 184.69 327.03 187.57 328.04 190.2C329.18 193.18 331.25 194.87 334.26 195.8C336.19 196.4 338.09 196.92 339.71 198.2C341.16 199.35 342.16 200.93 342.9 202.6C344.91 207.11 345.87 212.14 346.8 216.96C347.43 220.2 347.94 223.46 348.73 226.67C349.52 229.88 350.36 233.07 350.81 236.35C350.89 236.52 350.97 236.68 351.04 236.85C351.25 237.34 350.48 237.6 350.22 237.2C347.11 232.42 343.33 228.12 338.16 225.49C335.83 224.3 332.73 224.05 330.78 222.18C329.3 220.76 329.1 218.59 329.32 216.65C329.61 214.11 330.83 212.02 332.1 209.85C332.8 208.66 333.62 207.39 333.34 205.94C333.07 204.58 331.94 203.57 330.82 202.87C328.67 201.54 326.16 200.94 324.41 199.02C322.78 197.24 321.87 195.01 321.69 192.61C321.45 189.41 322 185.97 322.49 182.81L322.48 182.82Z" fill="#00BEB4"/>
<path d="M364.84 199.33C367.58 195.8 370.89 192.75 374.61 190.28C376.6 188.96 381.28 186.36 382.23 190.25C382.78 192.53 380.55 194.77 379.08 196.2C376.87 198.35 374.32 200.2 372.46 202.68C374.77 203.42 377.18 203.56 379.18 205.15C381.55 207.04 382.62 210.68 380.26 213C379.11 214.13 377.59 214.82 376.17 215.51C374.31 216.41 372.42 217.22 370.52 218.02C366.41 219.74 362.25 221.48 358.75 224.29C355.18 227.15 351.82 232 351.54 236.67C351.51 237.12 351.68 236.71 351.42 236.51C351.27 236.64 350.79 236.41 350.79 236.15C350.86 229.22 352.11 222.61 354.94 216.26C357.57 210.37 360.88 204.44 364.84 199.34V199.33Z" fill="#00BEB4"/>
<path d="M374.31 134.77C372.8 137.91 371.22 140.98 369.54 144.04C367.92 146.99 366.31 149.91 365.1 153.06C363.61 156.93 362.05 160.74 360.48 164.58C358.84 168.57 357.38 172.63 356.21 176.78C353.92 184.88 352.22 193.21 351.38 201.59C350.95 205.85 350.76 210.13 350.88 214.41C350.97 217.75 351.35 221.06 351.66 224.39C351.99 227.85 352.22 231.36 351.93 234.83C351.69 237.73 351.23 241.19 348.97 243.26C348.53 243.67 347.9 243.16 348.16 242.64C350.84 237.15 350.69 231.16 350.18 225.21C349.9 221.92 349.51 218.65 349.39 215.35C349.25 211.15 349.41 206.94 349.81 202.76C350.59 194.54 352.23 186.42 354.35 178.45C355.44 174.36 356.79 170.35 358.34 166.42C359.9 162.48 361.7 158.64 363.21 154.68C365.94 147.51 370.1 141.16 373.79 134.48C373.98 134.13 374.48 134.44 374.32 134.79L374.31 134.77Z" fill="#333333"/>
<path d="M351.25 193.38C350.82 188.16 350.35 183.13 348.6 178.16C347.78 175.84 346.79 173.58 345.99 171.25C345.34 169.32 344.36 166.68 344.86 164.63C344.92 164.4 345.25 164.41 345.31 164.63C345.65 165.8 345.61 167.08 345.85 168.28C346.09 169.45 346.4 170.59 346.76 171.73C347.53 174.14 348.54 176.45 349.41 178.83C351.1 183.42 351.97 188.5 351.6 193.38C351.58 193.61 351.26 193.61 351.24 193.38H351.25Z" fill="#333333"/>
<path d="M381.49 163.39C379.42 168.39 373.19 168.68 368.65 169.8C365.41 170.6 363.02 172.76 361.3 175.57C359.42 178.64 358.15 182.24 357.1 185.67C357.09 185.71 357.03 185.69 357.04 185.65C358.31 179.65 360.13 172.43 366.31 169.64C371.27 167.4 377.8 168.53 380.96 163.17C381.12 162.91 381.6 163.08 381.47 163.39H381.49Z" fill="#333333"/>
<path d="M354.52 192.59C354.27 192.92 354.05 193.27 353.79 193.6C353.66 193.76 353.54 193.91 353.38 194.04C353.22 194.17 353.03 194.34 352.8 194.33C352.71 194.33 352.64 194.22 352.69 194.14C352.79 193.97 352.98 193.87 353.12 193.75C353.27 193.62 353.42 193.49 353.56 193.35C353.85 193.08 354.11 192.78 354.4 192.5C354.45 192.45 354.56 192.52 354.51 192.59H354.52Z" fill="#333333"/>
<path d="M367.48 208.46C363.91 211.39 360.61 214.86 357.99 218.67C356.74 220.49 355.58 222.41 354.53 224.35C353.39 226.47 352.63 228.71 351.74 230.94C351.67 231.11 351.36 231.11 351.39 230.89C351.89 226.18 354.87 222.15 357.25 218.23C358.49 216.2 360.03 214.56 361.69 212.86C363.4 211.11 365.15 209.45 367.15 208.04C367.39 207.87 367.71 208.27 367.47 208.46H367.48Z" fill="#333333"/>
<path d="M339.02 202.92C340.74 203.9 340.8 206.61 340.83 208.35C340.89 211.69 340.07 214.82 341.53 218C342.85 220.87 344.96 223.27 346.62 225.93C348.17 228.43 349.71 231.62 349.67 234.62C349.67 234.79 349.4 234.89 349.32 234.71C348.69 233.35 348.47 231.8 348.02 230.37C347.52 228.76 346.81 227.3 345.9 225.89C344.3 223.41 342.34 221.16 341.04 218.5C339.67 215.69 339.87 212.91 339.96 209.87C340.02 207.93 340.21 204.81 338.65 203.37C338.41 203.14 338.72 202.76 339 202.92H339.02Z" fill="#333333"/>
<path d="M350.53 234.93C357.46 234.83 370.67 234.76 370.67 234.76L367.4 259.02C366.66 264.48 362.01 268.55 356.5 268.55H344.56C339.05 268.55 334.39 264.48 333.66 259.02L330.39 234.76C330.39 234.76 343.6 234.84 350.53 234.93V234.93Z" fill="#333333"/>
<path d="M15.43 190.34L54.98 268.69L170.29 269.52L134.7 189.24L15.43 190.34Z" fill="#333333"/>
<path d="M246.82 269.03L246.8 262.76H172.15L137.81 187.45H18.43L15.43 190.35H132.05L167.74 268.97C167.74 268.97 246.82 268.83 246.82 269.03V269.03Z" fill="#131313"/>
<path d="M75.31 233.58C76.61 237.49 83.68 240.51 91.1 240.32C98.52 240.13 103.48 236.82 102.17 232.91C100.87 229 93.8 225.98 86.38 226.17C78.96 226.36 74 229.67 75.31 233.58Z" fill="white"/>
<path d="M167.74 269.47C167.81 269.47 167.88 269.46 167.95 269.43C168.2 269.32 168.31 269.02 168.2 268.77L132.38 189.86H15.44C15.16 189.86 14.94 190.08 14.94 190.36C14.94 190.64 15.16 190.86 15.44 190.86H131.74L167.3 269.19C167.38 269.37 167.57 269.48 167.76 269.48L167.74 269.47Z" fill="#262626"/>
<path d="M252.02 274.97H389.19V305.38H252.02V274.97Z" fill="#009F97"/>
<path d="M6 274.97H252.8V305.38H6V274.97Z" fill="#00BEB4"/>
<g style="mix-blend-mode:multiply">
<path d="M252.02 274.97H252.8H389.19V280.55H252.8H252.02H6V274.97H252.02Z" fill="#BDC4D7"/>
</g>
<path d="M246.02 268.97H395.81V276.42H246.02V268.97Z" fill="#2FAFA9"/>
<path d="M0 268.97H246.8V276.42H0V268.97Z" fill="#4CCFC8"/>
<path d="M286.65 74.37H335.07C338.069 74.37 340.5 76.8011 340.5 79.8V103.97C340.5 106.969 338.069 109.4 335.07 109.4H286.65C283.651 109.4 281.22 106.969 281.22 103.97V79.8C281.22 76.8011 283.651 74.37 286.65 74.37Z" fill="#333333"/>
<path d="M267.42 91.88L285.61 84.21V99.56L267.42 91.88Z" fill="#333333"/>
<path d="M322.35 95.23C320.5 95.23 319 93.7302 319 91.88C319 90.0298 320.5 88.53 322.35 88.53C324.2 88.53 325.7 90.0298 325.7 91.88C325.7 93.7302 324.2 95.23 322.35 95.23Z" fill="white"/>
<path d="M310.86 95.23C309.01 95.23 307.51 93.7302 307.51 91.88C307.51 90.0298 309.01 88.53 310.86 88.53C312.71 88.53 314.21 90.0298 314.21 91.88C314.21 93.7302 312.71 95.23 310.86 95.23Z" fill="white"/>
<path d="M299.37 95.23C297.52 95.23 296.02 93.7302 296.02 91.88C296.02 90.0298 297.52 88.53 299.37 88.53C301.22 88.53 302.72 90.0298 302.72 91.88C302.72 93.7302 301.22 95.23 299.37 95.23Z" fill="white"/>
<path d="M40.12 0H151.91C159.09 0 164.91 5.82 164.91 13V66.03C164.91 73.21 159.09 79.03 151.91 79.03H141.89C141.61 83.84 142.3 90.99 146.31 100.13C133.39 94.17 125.96 85.23 122.07 79.03H40.11C32.93 79.03 27.11 73.21 27.11 66.03V13C27.11 5.82 32.93 0 40.11 0H40.12Z" fill="#00BEB4"/>
<path d="M87.81 25.28H143.26C144.78 25.28 146.02 24.04 146.02 22.52C146.02 21 144.78 19.76 143.26 19.76H87.81C86.29 19.76 85.05 20.99 85.05 22.52C85.05 24.04 86.28 25.28 87.81 25.28Z" fill="#333333"/>
<path d="M48.05 41.35H144.33C145.26 41.35 146.02 40.59 146.02 39.66C146.02 38.73 145.26 37.97 144.33 37.97H48.05C47.12 37.97 46.36 38.73 46.36 39.66C46.36 40.59 47.12 41.35 48.05 41.35Z" fill="white"/>
<path d="M48.05 50.72H144.33C145.26 50.72 146.02 49.96 146.02 49.03C146.02 48.1 145.26 47.34 144.33 47.34H48.05C47.12 47.34 46.36 48.1 46.36 49.03C46.36 49.96 47.12 50.72 48.05 50.72Z" fill="white"/>
<path d="M69.05 60.72H144.32C145.25 60.72 146.01 59.96 146.01 59.03C146.01 58.1 145.25 57.34 144.32 57.34H69.05C68.12 57.34 67.36 58.1 67.36 59.03C67.36 59.96 68.12 60.72 69.05 60.72Z" fill="white"/>
<path d="M48.81 25.28H75.26C76.78 25.28 78.02 24.04 78.02 22.52C78.02 21 76.78 19.76 75.26 19.76H48.81C47.29 19.76 46.05 20.99 46.05 22.52C46.05 24.04 47.29 25.28 48.81 25.28Z" fill="#333333"/>
<path d="M133.91 122.72H103.88C102.775 122.72 101.88 123.615 101.88 124.72V145.24C101.88 146.345 102.775 147.24 103.88 147.24H133.91C135.015 147.24 135.91 146.345 135.91 145.24V124.72C135.91 123.615 135.015 122.72 133.91 122.72Z" fill="#333333"/>
<path d="M119.11 138.65C118.94 138.65 118.77 138.59 118.63 138.48L102.28 124.98C101.96 124.72 101.92 124.24 102.18 123.92C102.45 123.6 102.92 123.56 103.24 123.82L119.1 136.92L134.55 123.48C134.86 123.21 135.34 123.24 135.61 123.55C135.88 123.86 135.85 124.34 135.54 124.61L119.61 138.47C119.47 138.59 119.29 138.65 119.12 138.65H119.11Z" fill="#00BEB4"/>
<path d="M102.76 146.68C102.57 146.68 102.39 146.61 102.24 146.47C101.94 146.18 101.93 145.71 102.21 145.41L113.64 133.39C113.92 133.09 114.4 133.08 114.7 133.36C115 133.65 115.01 134.12 114.73 134.42L103.3 146.44C103.15 146.59 102.96 146.67 102.76 146.67V146.68Z" fill="#00BEB4"/>
<path d="M135.04 146.24C134.85 146.24 134.66 146.17 134.51 146.02L123.12 134.6C122.83 134.31 122.83 133.83 123.12 133.54C123.41 133.25 123.89 133.25 124.18 133.54L135.57 144.96C135.86 145.25 135.86 145.73 135.57 146.02C135.42 146.17 135.23 146.24 135.04 146.24V146.24Z" fill="#00BEB4"/>
<path d="M137.48 132C143.019 132 147.51 127.509 147.51 121.97C147.51 116.431 143.019 111.94 137.48 111.94C131.941 111.94 127.45 116.431 127.45 121.97C127.45 127.509 131.941 132 137.48 132Z" fill="#FF5F42"/>
<path d="M130.87 124.22C130.87 123.24 131.46 122.54 132.42 122.13V122.09C131.54 121.68 131.17 121.01 131.17 120.34C131.17 119.11 132.21 118.27 133.58 118.27C135.09 118.27 135.85 119.22 135.85 120.19C135.85 120.85 135.53 121.56 134.57 122.01V122.05C135.54 122.43 136.14 123.12 136.14 124.07C136.14 125.42 134.98 126.34 133.49 126.34C131.86 126.34 130.87 125.37 130.87 124.23V124.22ZM135.07 124.17C135.07 123.22 134.41 122.77 133.36 122.47C132.45 122.73 131.96 123.33 131.96 124.08C131.92 124.87 132.52 125.57 133.52 125.57C134.52 125.57 135.08 124.98 135.08 124.18L135.07 124.17ZM132.17 120.27C132.17 121.05 132.76 121.47 133.66 121.71C134.33 121.48 134.85 121 134.85 120.29C134.85 119.67 134.48 119.02 133.53 119.02C132.65 119.02 132.17 119.6 132.17 120.27Z" fill="white"/>
<path d="M141.78 119.29H138.81L138.51 121.29C138.69 121.27 138.86 121.24 139.15 121.24C139.75 121.24 140.35 121.37 140.83 121.66C141.44 122.01 141.95 122.68 141.95 123.66C141.95 125.18 140.74 126.32 139.05 126.32C138.2 126.32 137.48 126.08 137.11 125.84L137.37 125.04C137.69 125.23 138.33 125.47 139.04 125.47C140.04 125.47 140.89 124.82 140.89 123.78C140.88 122.77 140.21 122.05 138.65 122.05C138.21 122.05 137.86 122.1 137.57 122.13L138.07 118.39H141.8V119.28L141.78 119.29Z" fill="white"/>
<path d="M11.13 101.1H69.75C71.9591 101.1 73.75 102.891 73.75 105.1V114.27C73.75 116.479 71.9591 118.27 69.75 118.27H11.13C8.92087 118.27 7.13 116.479 7.13 114.27V105.1C7.13 102.891 8.92087 101.1 11.13 101.1Z" fill="#333333"/>
<path d="M65.52 114.19C65.78 114.19 65.99 114.1 66.15 113.91C66.31 113.72 66.38 113.49 66.36 113.21L66.11 110.99C66.09 110.93 66.11 110.9 66.14 110.88C66.18 110.86 66.22 110.88 66.28 110.91L68.11 112.23C68.34 112.4 68.57 112.46 68.81 112.41C69.05 112.36 69.25 112.22 69.4 111.97C69.57 111.67 69.6 111.41 69.5 111.18C69.4 110.95 69.22 110.8 68.98 110.7L66.93 109.77C66.87 109.75 66.85 109.72 66.85 109.69C66.85 109.66 66.88 109.62 66.93 109.61L68.98 108.68C69.24 108.57 69.41 108.39 69.49 108.15C69.56 107.91 69.54 107.66 69.41 107.42C69.26 107.18 69.06 107.03 68.82 106.98C68.58 106.93 68.34 106.98 68.12 107.13L66.29 108.48C66.23 108.52 66.19 108.53 66.15 108.51C66.11 108.49 66.1 108.45 66.12 108.4L66.37 106.18C66.39 105.9 66.31 105.66 66.14 105.48C65.97 105.29 65.75 105.2 65.46 105.2C65.2 105.2 64.98 105.29 64.81 105.48C64.64 105.67 64.58 105.9 64.61 106.18L64.86 108.4C64.88 108.46 64.86 108.49 64.83 108.51C64.79 108.53 64.75 108.51 64.69 108.48L62.86 107.16C62.64 106.99 62.4 106.93 62.14 106.98C61.89 107.03 61.7 107.17 61.56 107.42C61.39 107.72 61.36 107.98 61.46 108.21C61.56 108.43 61.74 108.59 61.98 108.69L64.03 109.62C64.09 109.64 64.11 109.67 64.11 109.7C64.11 109.73 64.08 109.77 64.03 109.78L61.98 110.71C61.72 110.82 61.54 111 61.46 111.24C61.38 111.48 61.41 111.73 61.56 111.97C61.69 112.21 61.88 112.36 62.14 112.41C62.39 112.46 62.63 112.41 62.86 112.26L64.69 110.91C64.75 110.87 64.79 110.86 64.83 110.88C64.87 110.9 64.88 110.94 64.86 110.99L64.61 113.21C64.57 113.49 64.64 113.73 64.82 113.91C65 114.1 65.23 114.19 65.51 114.19H65.52Z" fill="white"/>
<path d="M53.39 114.19C53.65 114.19 53.86 114.1 54.02 113.91C54.18 113.72 54.25 113.49 54.23 113.21L53.98 110.99C53.96 110.93 53.98 110.9 54.01 110.88C54.05 110.86 54.09 110.88 54.15 110.91L55.98 112.23C56.21 112.4 56.44 112.46 56.68 112.41C56.92 112.36 57.12 112.22 57.27 111.97C57.44 111.67 57.47 111.41 57.37 111.18C57.27 110.95 57.09 110.8 56.85 110.7L54.8 109.77C54.74 109.75 54.72 109.72 54.72 109.69C54.72 109.66 54.75 109.62 54.8 109.61L56.85 108.68C57.11 108.57 57.28 108.39 57.36 108.15C57.43 107.91 57.41 107.66 57.28 107.42C57.13 107.18 56.93 107.03 56.69 106.98C56.45 106.93 56.21 106.98 55.99 107.13L54.16 108.48C54.1 108.52 54.06 108.53 54.02 108.51C53.98 108.49 53.97 108.45 53.99 108.4L54.24 106.18C54.26 105.9 54.18 105.66 54.01 105.48C53.84 105.29 53.62 105.2 53.33 105.2C53.07 105.2 52.85 105.29 52.68 105.48C52.51 105.67 52.45 105.9 52.48 106.18L52.73 108.4C52.75 108.46 52.74 108.49 52.7 108.51C52.66 108.53 52.62 108.51 52.56 108.48L50.73 107.16C50.51 106.99 50.27 106.93 50.01 106.98C49.76 107.03 49.57 107.17 49.43 107.42C49.26 107.72 49.23 107.98 49.33 108.21C49.43 108.43 49.61 108.59 49.85 108.69L51.9 109.62C51.96 109.64 51.98 109.67 51.98 109.7C51.98 109.73 51.95 109.77 51.9 109.78L49.85 110.71C49.59 110.82 49.41 111 49.33 111.24C49.25 111.48 49.28 111.73 49.43 111.97C49.56 112.21 49.75 112.36 50.01 112.41C50.26 112.46 50.5 112.41 50.73 112.26L52.56 110.91C52.62 110.87 52.66 110.86 52.7 110.88C52.74 110.9 52.75 110.94 52.73 110.99L52.48 113.21C52.44 113.49 52.51 113.73 52.69 113.91C52.87 114.1 53.1 114.19 53.38 114.19H53.39Z" fill="white"/>
<path d="M41.27 114.19C41.53 114.19 41.74 114.1 41.9 113.91C42.06 113.72 42.13 113.49 42.11 113.21L41.86 110.99C41.84 110.93 41.86 110.9 41.89 110.88C41.93 110.86 41.97 110.88 42.03 110.91L43.86 112.23C44.09 112.4 44.32 112.46 44.56 112.41C44.8 112.36 45 112.22 45.15 111.97C45.32 111.67 45.35 111.41 45.25 111.18C45.15 110.95 44.97 110.8 44.73 110.7L42.68 109.77C42.62 109.75 42.6 109.72 42.6 109.69C42.6 109.66 42.63 109.62 42.68 109.61L44.73 108.68C44.99 108.57 45.16 108.39 45.24 108.15C45.31 107.91 45.29 107.66 45.16 107.42C45.01 107.18 44.81 107.03 44.57 106.98C44.33 106.93 44.09 106.98 43.87 107.13L42.04 108.48C41.98 108.52 41.94 108.53 41.9 108.51C41.86 108.49 41.85 108.45 41.87 108.4L42.12 106.18C42.14 105.9 42.06 105.66 41.89 105.48C41.72 105.29 41.5 105.2 41.21 105.2C40.95 105.2 40.73 105.29 40.56 105.48C40.39 105.67 40.33 105.9 40.36 106.18L40.61 108.4C40.63 108.46 40.62 108.49 40.58 108.51C40.54 108.53 40.5 108.51 40.44 108.48L38.61 107.16C38.39 106.99 38.15 106.93 37.89 106.98C37.64 107.03 37.45 107.17 37.31 107.42C37.14 107.72 37.11 107.98 37.21 108.21C37.31 108.43 37.49 108.59 37.73 108.69L39.78 109.62C39.84 109.64 39.86 109.67 39.86 109.7C39.86 109.73 39.83 109.77 39.78 109.78L37.73 110.71C37.47 110.82 37.29 111 37.21 111.24C37.13 111.48 37.16 111.73 37.31 111.97C37.44 112.21 37.63 112.36 37.89 112.41C38.14 112.46 38.38 112.41 38.61 112.26L40.44 110.91C40.5 110.87 40.54 110.86 40.58 110.88C40.62 110.9 40.63 110.94 40.61 110.99L40.36 113.21C40.32 113.49 40.39 113.73 40.57 113.91C40.75 114.1 40.98 114.19 41.26 114.19H41.27Z" fill="white"/>
<path d="M29.14 114.19C29.4 114.19 29.61 114.1 29.77 113.91C29.93 113.72 30 113.49 29.98 113.21L29.73 110.99C29.71 110.93 29.73 110.9 29.76 110.88C29.8 110.86 29.84 110.88 29.9 110.91L31.73 112.23C31.96 112.4 32.19 112.46 32.43 112.41C32.67 112.36 32.87 112.22 33.02 111.97C33.19 111.67 33.22 111.41 33.12 111.18C33.02 110.95 32.84 110.8 32.6 110.7L30.55 109.77C30.49 109.75 30.47 109.72 30.47 109.69C30.47 109.66 30.5 109.62 30.55 109.61L32.6 108.68C32.86 108.57 33.03 108.39 33.11 108.15C33.18 107.91 33.16 107.66 33.03 107.42C32.88 107.18 32.68 107.03 32.44 106.98C32.2 106.93 31.96 106.98 31.74 107.13L29.91 108.48C29.85 108.52 29.81 108.53 29.77 108.51C29.73 108.49 29.72 108.45 29.74 108.4L29.99 106.18C30.01 105.9 29.93 105.66 29.76 105.48C29.59 105.29 29.37 105.2 29.08 105.2C28.82 105.2 28.6 105.29 28.43 105.48C28.26 105.67 28.2 105.9 28.23 106.18L28.48 108.4C28.5 108.46 28.49 108.49 28.45 108.51C28.41 108.53 28.37 108.51 28.31 108.48L26.48 107.16C26.26 106.99 26.02 106.93 25.76 106.98C25.51 107.03 25.32 107.17 25.18 107.42C25.01 107.72 24.98 107.98 25.08 108.21C25.18 108.43 25.36 108.59 25.6 108.69L27.65 109.62C27.71 109.64 27.73 109.67 27.73 109.7C27.73 109.73 27.7 109.77 27.65 109.78L25.6 110.71C25.34 110.82 25.16 111 25.08 111.24C25 111.48 25.03 111.73 25.18 111.97C25.31 112.21 25.5 112.36 25.76 112.41C26.01 112.46 26.25 112.41 26.48 112.26L28.31 110.91C28.37 110.87 28.41 110.86 28.45 110.88C28.49 110.9 28.5 110.94 28.48 110.99L28.23 113.21C28.19 113.49 28.26 113.73 28.44 113.91C28.62 114.1 28.85 114.19 29.13 114.19H29.14Z" fill="white"/>
<path d="M17.02 114.19C17.28 114.19 17.49 114.1 17.65 113.91C17.81 113.72 17.88 113.49 17.86 113.21L17.61 110.99C17.59 110.93 17.61 110.9 17.64 110.88C17.68 110.86 17.72 110.88 17.78 110.91L19.61 112.23C19.84 112.4 20.07 112.46 20.31 112.41C20.55 112.36 20.75 112.22 20.9 111.97C21.07 111.67 21.1 111.41 21 111.18C20.9 110.95 20.72 110.8 20.48 110.7L18.43 109.77C18.37 109.75 18.35 109.72 18.35 109.69C18.35 109.66 18.38 109.62 18.43 109.61L20.48 108.68C20.74 108.57 20.91 108.39 20.99 108.15C21.06 107.91 21.04 107.66 20.91 107.42C20.76 107.18 20.56 107.03 20.32 106.98C20.08 106.93 19.84 106.98 19.62 107.13L17.79 108.48C17.73 108.52 17.69 108.53 17.65 108.51C17.61 108.49 17.6 108.45 17.62 108.4L17.87 106.18C17.89 105.9 17.81 105.66 17.64 105.48C17.47 105.29 17.25 105.2 16.96 105.2C16.7 105.2 16.48 105.29 16.31 105.48C16.14 105.67 16.08 105.9 16.11 106.18L16.36 108.4C16.38 108.46 16.37 108.49 16.33 108.51C16.29 108.53 16.25 108.51 16.19 108.48L14.36 107.16C14.14 106.99 13.9 106.93 13.64 106.98C13.39 107.03 13.2 107.17 13.06 107.42C12.89 107.72 12.86 107.98 12.96 108.21C13.06 108.43 13.24 108.59 13.48 108.69L15.53 109.62C15.59 109.64 15.61 109.67 15.61 109.7C15.61 109.73 15.58 109.77 15.53 109.78L13.48 110.71C13.22 110.82 13.04 111 12.96 111.24C12.88 111.48 12.91 111.73 13.06 111.97C13.19 112.21 13.38 112.36 13.64 112.41C13.89 112.46 14.13 112.41 14.36 112.26L16.19 110.91C16.25 110.87 16.29 110.86 16.33 110.88C16.37 110.9 16.38 110.94 16.36 110.99L16.11 113.21C16.07 113.49 16.14 113.73 16.32 113.91C16.5 114.1 16.73 114.19 17.01 114.19H17.02Z" fill="#00BEB4"/>
</svg>
