<svg width="500" height="500" viewBox="0 0 500 500" fill="none" xmlns="http://www.w3.org/2000/svg">
<rect width="500" height="500" rx="100" fill="white"/>
<path d="M452.44 210.707H430.496C419.931 185.53 391.392 167.491 357.862 167.491C315.319 167.491 280.832 196.522 280.832 232.328C280.832 234.306 280.935 236.259 281.142 238.198L265.069 210.332C275.84 174.707 313.677 148.392 358.69 148.392C403.858 148.392 441.81 174.888 452.44 210.707Z" fill="black"/>
<path d="M459.836 250.754C459.836 257.53 459.177 264.151 457.922 270.565C448.69 317.789 407.09 353.414 357.164 353.414C343.703 353.414 330.849 350.828 319.069 346.108C318.125 345.733 317.181 345.332 316.237 344.931C296.621 336.397 280.509 321.397 269.802 302.866L262.017 289.392L247.302 263.866L223.34 222.371C221.336 218.892 219.474 215.323 217.625 211.767C215.776 208.211 213.668 204.797 211.328 201.565C196.302 180.746 171.836 167.207 144.215 167.207C97.2241 167.207 59.375 206.414 61.5991 253.91C63.6034 296.595 98.4784 331.056 141.177 332.582C169.767 333.604 195.28 320.104 210.862 298.884C213.823 294.875 216.422 290.595 218.621 286.082H141.733V266.129H222.668L224.608 269.478L234.19 286.082L238.677 293.841C234.448 302.957 228.94 311.349 222.358 318.772C203.763 339.785 176.685 353.116 146.491 353.414C90.6681 353.957 44.1293 309.009 42.8362 253.198C41.5043 195.371 87.9525 148.095 145.47 148.095C159.487 148.095 172.845 150.901 185.013 155.996C205.741 164.647 223.017 179.892 234.215 199.121L234.707 199.961L255.552 236.091L285.164 287.362C286.47 289.948 287.918 292.47 289.509 294.888C304.237 317.608 329.828 332.634 358.922 332.634C397.483 332.634 429.862 306.254 439.03 270.565H353.427V250.754H459.836Z" fill="black"/>
</svg>
