<?xml version="1.0" encoding="utf-8"?>
<!-- Generator: Adobe Illustrator 25.2.3, SVG Export Plug-In . SVG Version: 6.00 Build 0)  -->
<svg version="1.1" id="Layer_1" xmlns="http://www.w3.org/2000/svg" xmlns:xlink="http://www.w3.org/1999/xlink" x="0px" y="0px"
	 viewBox="0 0 337.71 174" style="enable-background:new 0 0 337.71 174;" xml:space="preserve">
<style type="text/css">
	.st0{fill:#FFFFFF;}
</style>
<path class="st0" d="M325.14,57h-16.97C300,37.53,277.93,23.58,252,23.58c-32.9,0-59.57,22.45-59.57,50.14
	c0,1.53,0.08,3.04,0.24,4.54l-12.43-21.55c8.33-27.55,37.59-47.9,72.4-47.9C287.57,8.81,316.92,29.3,325.14,57z"/>
<path class="st0" d="M330.86,87.97c0,5.24-0.51,10.36-1.48,15.32c-7.14,36.52-39.31,64.07-77.92,64.07c-10.41,0-20.35-2-29.46-5.65
	c-0.73-0.29-1.46-0.6-2.19-0.91c-15.17-6.6-27.63-18.2-35.91-32.53l-6.02-10.42L166.5,98.11l-18.53-32.09
	c-1.55-2.69-2.99-5.45-4.42-8.2c-1.43-2.75-3.06-5.39-4.87-7.89c-11.62-16.1-30.54-26.57-51.9-26.57
	c-36.34,0-65.61,30.32-63.89,67.05c1.55,33.01,28.52,59.66,61.54,60.84c22.11,0.79,41.84-9.65,53.89-26.06c2.29-3.1,4.3-6.41,6-9.9
	H84.86V99.86h62.59l1.5,2.59l7.41,12.84l3.47,6c-3.27,7.05-7.53,13.54-12.62,19.28c-14.38,16.25-35.32,26.56-58.67,26.79
	c-43.17,0.42-79.16-34.34-80.16-77.5C7.35,45.14,43.27,8.58,87.75,8.58c10.84,0,21.17,2.17,30.58,6.11
	c16.03,6.69,29.39,18.48,38.05,33.35l0.38,0.65l16.12,27.94l22.9,39.65c1.01,2,2.13,3.95,3.36,5.82
	c11.39,17.57,31.18,29.19,53.68,29.19c29.82,0,54.86-20.4,61.95-48h-66.2V87.97H330.86z"/>
</svg>
