<svg width="409" height="335" viewBox="0 0 409 335" fill="none" xmlns="http://www.w3.org/2000/svg">
<path d="M408.01 166.77C406.37 183.43 402.29 199.82 396.28 215.42C391.81 227.02 386.28 238.19 379.9 248.69C378.43 251.1 376.92 253.48 375.36 255.83C372.94 259.48 370.41 263.04 367.78 266.5C361.19 275.2 354.02 283.25 346.41 290.51C339.59 297.01 332.44 302.86 325.04 307.95C320.86 310.83 322.88 317.37 327.95 317.37H330.29C330.6 317.37 330.91 317.39 331.21 317.42C335.69 317.89 339.15 321.78 338.93 326.44C338.71 331.09 334.7 334.68 330.04 334.68H84.08C79.16 334.68 75.2 330.58 75.43 325.61C75.54 323.29 76.6 321.22 78.21 319.75C79.82 318.27 81.99 317.37 84.32 317.37C89.25 317.37 91.37 311.13 87.47 308.12C71.03 295.44 43.54 269.43 28.06 228.3C20.44 208.06 15.73 184.16 16.67 156.38C20.47 44.33 127.18 -17.07 251.58 4.16C375.98 25.38 415.4 91.75 408.01 166.77Z" fill="url(#paint0_linear_234_8941)"/>
<path d="M86.1163 207.102C113.869 195.138 127.717 165.376 117.048 140.627C106.379 115.877 75.232 105.511 47.4798 117.475C19.7276 129.438 5.87906 159.2 16.5482 183.95C27.2174 208.7 58.3641 219.065 86.1163 207.102Z" fill="url(#paint1_radial_234_8941)"/>
<g style="mix-blend-mode:overlay" opacity="0.08">
<path d="M346.42 290.5C340.95 300.81 335.62 310.06 331.22 317.41C324.86 328.04 320.46 334.67 320.46 334.67H84.08C79.16 334.67 75.2 330.57 75.43 325.6C75.54 323.28 76.6 321.21 78.21 319.74C79.82 318.26 81.99 317.36 84.32 317.36C89.25 317.36 91.37 311.12 87.47 308.11C85.14 306.31 82.59 304.25 79.89 301.91C74.71 297.45 68.97 291.98 63.1 285.48C58.93 280.86 54.7 275.72 50.59 270.03C42.16 258.4 34.18 244.52 28.07 228.28C46.66 246.97 73.96 266.42 108.41 268.71C176.63 273.26 304.55 146.49 360.26 168.65C395.75 182.77 369.88 246.26 346.42 290.49V290.5Z" fill="black"/>
</g>
<g style="mix-blend-mode:overlay" opacity="0.25">
<path d="M95.61 239.01H117.21V230.92H95.61V239.01Z" fill="black"/>
</g>
<g style="mix-blend-mode:overlay" opacity="0.25">
<path d="M71.4 239.01H93V230.92H71.4V239.01Z" fill="black"/>
</g>
<g style="mix-blend-mode:overlay" opacity="0.25">
<path d="M83.51 250.39H105.11V242.3H83.51V250.39Z" fill="white"/>
</g>
<g style="mix-blend-mode:overlay" opacity="0.25">
<path d="M59.31 250.39H80.91V242.3H59.31V250.39Z" fill="white"/>
</g>
<g style="mix-blend-mode:overlay" opacity="0.25">
<path d="M265.59 30.18H243.99V38.27H265.59V30.18Z" fill="black"/>
</g>
<g style="mix-blend-mode:overlay" opacity="0.25">
<path d="M289.79 30.18H268.19V38.27H289.79V30.18Z" fill="black"/>
</g>
<g style="mix-blend-mode:overlay" opacity="0.25">
<path d="M277.69 41.56H256.09V49.65H277.69V41.56Z" fill="white"/>
</g>
<g style="mix-blend-mode:overlay" opacity="0.25">
<path d="M301.9 41.56H280.3V49.65H301.9V41.56Z" fill="white"/>
</g>
<path d="M92.2 105.97V171.9C92.2 174.28 90.27 176.22 87.88 176.22H4.31C1.93 176.22 0 174.29 0 171.9V105.97C0 103.59 1.93 101.66 4.31 101.66H87.88C90.26 101.66 92.2 103.59 92.2 105.97V105.97Z" fill="url(#paint2_radial_234_8941)"/>
<path d="M38.99 113.07H7.90001C6.99001 113.07 6.26001 112.33 6.26001 111.43C6.26001 110.52 7.00001 109.79 7.90001 109.79H38.99C39.9 109.79 40.63 110.53 40.63 111.43C40.63 112.34 39.89 113.07 38.99 113.07Z" fill="#333333"/>
<path d="M38.99 124.19H7.90001C6.99001 124.19 6.26001 123.45 6.26001 122.55C6.26001 121.64 7.00001 120.91 7.90001 120.91H38.99C39.9 120.91 40.63 121.65 40.63 122.55C40.63 123.46 39.89 124.19 38.99 124.19Z" fill="#EEF8FF"/>
<path d="M49.4 135.31H7.90001C6.99001 135.31 6.26001 134.57 6.26001 133.67C6.26001 132.76 7.00001 132.03 7.90001 132.03H49.4C50.31 132.03 51.04 132.77 51.04 133.67C51.04 134.58 50.3 135.31 49.4 135.31Z" fill="#333333"/>
<path d="M49.4 166.45H7.90001C6.99001 166.45 6.26001 165.71 6.26001 164.81C6.26001 163.9 7.00001 163.17 7.90001 163.17H49.4C50.31 163.17 51.04 163.91 51.04 164.81C51.04 165.72 50.3 166.45 49.4 166.45Z" fill="#333333"/>
<path d="M79.59 166.45H58.65C57.74 166.45 57.01 165.71 57.01 164.81C57.01 163.9 57.75 163.17 58.65 163.17H79.59C80.5 163.17 81.23 163.91 81.23 164.81C81.23 165.72 80.49 166.45 79.59 166.45Z" fill="#EEF8FF"/>
<path d="M30 142.81V147.54C30 147.92 30.31 148.23 30.69 148.23H33.31C33.69 148.23 34 147.92 34 147.54V142.81C34 142.43 34.31 142.12 34.69 142.12H34.94C35.32 142.12 35.63 142.43 35.63 142.81V155.67C35.63 156.05 35.32 156.36 34.94 156.36H34.69C34.31 156.36 34 156.05 34 155.67V150.39C34 150.01 33.69 149.7 33.31 149.7H30.69C30.31 149.7 30 150.01 30 150.39V155.67C30 156.05 29.69 156.36 29.31 156.36H29.06C28.68 156.36 28.37 156.05 28.37 155.67V142.81C28.37 142.43 28.68 142.12 29.06 142.12H29.31C29.69 142.12 30 142.43 30 142.81Z" fill="white"/>
<path d="M39.13 143.58H37.91C37.53 143.58 37.22 143.27 37.22 142.89V142.8C37.22 142.42 37.53 142.11 37.91 142.11H43.36C43.74 142.11 44.05 142.42 44.05 142.8V142.89C44.05 143.27 43.74 143.58 43.36 143.58H42.14C41.76 143.58 41.45 143.89 41.45 144.27V155.68C41.45 156.06 41.14 156.37 40.76 156.37H40.51C40.13 156.37 39.82 156.06 39.82 155.68V144.27C39.82 143.89 39.51 143.58 39.13 143.58V143.58Z" fill="white"/>
<path d="M54.16 150.23C54.05 148.35 53.95 146.26 54.01 144.65H53.93C53.61 146.23 53.23 147.92 52.79 149.59L51.04 156.26H50L48.33 149.86C47.86 148.04 47.44 146.29 47.17 144.64H47.11C47.11 146.31 47.02 148.29 46.94 150.32L46.7 155.68C46.68 156.05 46.38 156.33 46.01 156.33H45.94C45.55 156.33 45.23 156 45.25 155.6L46.01 142.74C46.03 142.38 46.33 142.09 46.7 142.09H47.27C47.58 142.09 47.86 142.3 47.93 142.61L49.47 148.6C49.96 150.48 50.31 151.87 50.61 153.5H50.67C50.94 151.87 51.26 150.52 51.73 148.6L53.21 142.62C53.29 142.31 53.56 142.1 53.88 142.1H54.51C54.87 142.1 55.17 142.38 55.2 142.75L55.94 155.61C55.96 156 55.65 156.34 55.25 156.34H55.11C54.74 156.34 54.44 156.05 54.42 155.69L54.16 150.22V150.23Z" fill="white"/>
<path d="M58.87 142.12H59.12C59.5 142.12 59.81 142.43 59.81 142.81V154.3C59.81 154.68 60.12 154.99 60.5 154.99H63.14C63.52 154.99 63.83 155.3 63.83 155.68C63.83 156.06 63.52 156.37 63.14 156.37H58.87C58.49 156.37 58.18 156.06 58.18 155.68V142.82C58.18 142.44 58.49 142.13 58.87 142.13V142.12Z" fill="white"/>
<path style="mix-blend-mode:color-dodge" d="M79.41 173.62C84.2756 173.62 88.22 169.676 88.22 164.81C88.22 159.944 84.2756 156 79.41 156C74.5444 156 70.6 159.944 70.6 164.81C70.6 169.676 74.5444 173.62 79.41 173.62Z" fill="url(#paint3_radial_234_8941)"/>
<g style="mix-blend-mode:overlay" opacity="0.25">
<path d="M92.2 105.97V135.09H45.01C43.02 135.09 41.4 133.47 41.4 131.48V101.66H87.88C90.26 101.66 92.2 103.59 92.2 105.97V105.97Z" fill="black"/>
</g>
<path d="M50.53 22.61H205.93C207.6 22.61 208.96 23.97 208.96 25.64V29.18H47.5V25.64C47.5 23.97 48.86 22.61 50.53 22.61Z" fill="url(#paint4_radial_234_8941)"/>
<path opacity="0.86" d="M47.5 29.17H208.96V125.38C208.96 127.37 207.35 128.98 205.36 128.98H51.11C49.12 128.98 47.51 127.37 47.51 125.38V29.17H47.5Z" fill="#00BEB4"/>
<path d="M202.02 25.89C202.02 26.52 201.51 27.03 200.88 27.03C200.25 27.03 199.74 26.52 199.74 25.89C199.74 25.26 200.25 24.75 200.88 24.75C201.51 24.75 202.02 25.26 202.02 25.89Z" fill="#EEF8FF"/>
<path d="M195.05 25.89C195.05 26.52 194.54 27.03 193.91 27.03C193.28 27.03 192.77 26.52 192.77 25.89C192.77 25.26 193.28 24.75 193.91 24.75C194.54 24.75 195.05 25.26 195.05 25.89Z" fill="#EEF8FF"/>
<path d="M188.08 25.89C188.08 26.52 187.57 27.03 186.94 27.03C186.31 27.03 185.8 26.52 185.8 25.89C185.8 25.26 186.31 24.75 186.94 24.75C187.57 24.75 188.08 25.26 188.08 25.89Z" fill="#EEF8FF"/>
<path d="M146.43 41.56H63.8C62.89 41.56 62.16 40.82 62.16 39.92C62.16 39.01 62.9 38.28 63.8 38.28H146.43C147.34 38.28 148.07 39.02 148.07 39.92C148.07 40.83 147.33 41.56 146.43 41.56Z" fill="white"/>
<path d="M146.43 51.92H63.8C62.89 51.92 62.16 51.18 62.16 50.28C62.16 49.37 62.9 48.64 63.8 48.64H146.43C147.34 48.64 148.07 49.38 148.07 50.28C148.07 51.19 147.33 51.92 146.43 51.92Z" fill="white"/>
<path d="M101.83 58.99H63.8C62.8943 58.99 62.16 59.7242 62.16 60.63C62.16 61.5357 62.8943 62.27 63.8 62.27H101.83C102.736 62.27 103.47 61.5357 103.47 60.63C103.47 59.7242 102.736 58.99 101.83 58.99Z" fill="#333333"/>
<path d="M146.43 103.3H63.8C62.89 103.3 62.16 102.56 62.16 101.66C62.16 100.75 62.9 100.02 63.8 100.02H146.43C147.34 100.02 148.07 100.76 148.07 101.66C148.07 102.57 147.33 103.3 146.43 103.3Z" fill="#333333"/>
<path d="M101.83 113.66H63.8C62.89 113.66 62.16 112.92 62.16 112.02C62.16 111.11 62.9 110.38 63.8 110.38H101.83C102.74 110.38 103.47 111.12 103.47 112.02C103.47 112.93 102.73 113.66 101.83 113.66Z" fill="#333333"/>
<path d="M180 48.38C172.34 48.38 166.11 54.61 166.11 62.27C166.11 69.93 172.34 76.16 180 76.16C187.66 76.16 193.89 69.93 193.89 62.27C193.89 54.61 187.66 48.38 180 48.38V48.38ZM180 73.81C173.64 73.81 168.47 68.64 168.47 62.28C168.47 55.92 173.64 50.75 180 50.75C186.36 50.75 191.53 55.92 191.53 62.28C191.53 68.64 186.36 73.81 180 73.81Z" fill="white"/>
<path d="M185.76 65.41C182.58 68.59 177.41 68.59 174.23 65.41C173.9 65.08 173.38 65.08 173.05 65.41C172.72 65.74 172.72 66.26 173.05 66.59C174.97 68.5 177.48 69.46 180 69.46C182.52 69.46 185.03 68.5 186.95 66.59C187.28 66.26 187.28 65.74 186.95 65.41C186.62 65.08 186.1 65.08 185.77 65.41H185.76Z" fill="white"/>
<path d="M175.01 61.52C175.78 61.52 176.4 60.9 176.4 60.13C176.4 59.36 175.78 58.74 175.01 58.74C174.24 58.74 173.62 59.36 173.62 60.13C173.62 60.9 174.24 61.52 175.01 61.52Z" fill="white"/>
<path d="M184.99 61.52C185.76 61.52 186.38 60.9 186.38 60.13C186.38 59.36 185.76 58.74 184.99 58.74C184.22 58.74 183.6 59.36 183.6 60.13C183.6 60.9 184.22 61.52 184.99 61.52Z" fill="white"/>
<path d="M69.62 91.67C69.27 91.67 68.93 91.53 68.66 91.25L62.55 84.71C62.02 84.14 62.02 83.23 62.55 82.66L68.76 76.01C69.29 75.44 70.15 75.44 70.67 76.01C71.2 76.58 71.2 77.49 70.67 78.06L65.41 83.68L70.56 89.19C71.09 89.76 71.09 90.67 70.56 91.24C70.3 91.52 69.95 91.66 69.6 91.66L69.62 91.67Z" fill="white"/>
<path d="M89.19 91.67C88.84 91.67 88.5 91.53 88.23 91.25C87.7 90.68 87.7 89.77 88.23 89.2L93.38 83.69L88.12 78.07C87.59 77.5 87.59 76.59 88.12 76.02C88.65 75.45 89.51 75.45 90.03 76.02L96.24 82.67C96.49 82.94 96.64 83.31 96.64 83.69C96.64 84.07 96.5 84.44 96.24 84.71L90.13 91.25C89.87 91.53 89.52 91.67 89.17 91.67H89.19Z" fill="white"/>
<path d="M76.37 93.47C76.2 93.47 76.03 93.44 75.86 93.36C75.17 93.06 74.84 92.21 75.12 91.47L81.18 75.53C81.46 74.79 82.25 74.43 82.94 74.73C83.63 75.03 83.96 75.88 83.68 76.62L77.62 92.56C77.41 93.12 76.9 93.46 76.37 93.46V93.47Z" fill="white"/>
<path d="M201.46 87.62H158.54C156.4 87.62 154.65 85.88 154.65 83.73V40.82C154.65 38.68 156.39 36.93 158.54 36.93H201.46C203.6 36.93 205.35 38.67 205.35 40.82V83.74C205.35 85.88 203.61 87.63 201.46 87.63V87.62ZM158.54 39.29C157.7 39.29 157.01 39.98 157.01 40.82V83.74C157.01 84.58 157.7 85.27 158.54 85.27H201.46C202.3 85.27 202.99 84.58 202.99 83.74V40.82C202.99 39.98 202.3 39.29 201.46 39.29H158.54V39.29Z" fill="#333333"/>
<path d="M138.99 76.83V75.5C138.99 74.99 138.58 74.58 138.07 74.58H135.89C135.72 73.85 135.43 73.17 135.05 72.55L136.59 71.01C136.95 70.65 136.95 70.07 136.59 69.72L135.65 68.78C135.29 68.42 134.71 68.42 134.36 68.78L132.82 70.32C132.2 69.94 131.52 69.65 130.79 69.48V67.3C130.79 66.79 130.38 66.38 129.88 66.38H128.55C128.04 66.38 127.64 66.79 127.64 67.3V69.48C126.91 69.65 126.23 69.94 125.61 70.32L124.07 68.78C123.71 68.42 123.13 68.42 122.78 68.78L121.84 69.72C121.48 70.08 121.48 70.66 121.84 71.01L123.38 72.55C123 73.17 122.71 73.85 122.54 74.58H120.36C119.85 74.58 119.44 74.99 119.44 75.5V76.83C119.44 77.34 119.85 77.74 120.36 77.74H122.54C122.71 78.47 123 79.15 123.38 79.77L121.84 81.31C121.48 81.67 121.48 82.25 121.84 82.6L122.78 83.54C123.14 83.9 123.72 83.9 124.07 83.54L125.61 82C126.23 82.38 126.91 82.67 127.64 82.84V85.02C127.64 85.53 128.05 85.94 128.55 85.94H129.88C130.39 85.94 130.79 85.53 130.79 85.02V82.84C131.52 82.67 132.2 82.38 132.82 82L134.36 83.54C134.72 83.9 135.3 83.9 135.65 83.54L136.59 82.6C136.95 82.24 136.95 81.66 136.59 81.31L135.05 79.77C135.43 79.15 135.72 78.47 135.89 77.74H138.07C138.58 77.74 138.99 77.33 138.99 76.83ZM129.85 79.88C127.27 80.31 125.06 78.1 125.49 75.52C125.75 73.96 127.01 72.7 128.57 72.44C131.15 72.01 133.36 74.22 132.93 76.8C132.67 78.36 131.41 79.62 129.85 79.88Z" fill="white"/>
<path d="M287.48 314.95L312.24 313.56C312.24 313.56 322.1 313.44 313.51 308.38C311.99 307.49 310.65 306.49 309.45 305.46C305.56 302.08 303.29 298.27 302.27 296.27L297.41 297.55L288.91 299.79C288.83 299.81 288.76 299.83 288.69 299.84C288.08 304.89 287.48 314.95 287.48 314.95V314.95Z" fill="url(#paint5_radial_234_8941)"/>
<path d="M320.46 317.35C320.46 317.35 319.96 309.14 313.51 308.38C307.07 307.62 306.33 313.89 306.33 313.89L287.48 312.83L286.98 317.35H320.46V317.35Z" fill="white"/>
<path d="M297.41 297.56C298.16 300.02 300.28 305.6 304.28 307.25C306.22 305.7 308.21 305.43 309.45 305.47C305.56 302.09 303.29 298.28 302.27 296.28L297.41 297.56Z" fill="white"/>
<path d="M303.06 294.42L286.48 296.19C286.48 296.19 279.97 244.2 274.1 222.72C272.21 227.15 268.39 243.15 264.83 259.1C260.68 277.71 256.87 296.26 256.87 296.26C256.87 296.26 247.37 297.33 242.06 293.03C243.69 263.37 255.18 204.18 256.68 195.52C256.69 195.59 256.71 195.66 256.73 195.73C256.84 196.13 256.95 196.45 257.1 196.7C257.18 196.84 257.28 196.98 257.41 197.12C257.41 197.12 257.41 197.12 257.43 197.14C258.8 198.64 262.92 200.29 268.68 200.48C274.88 200.67 282.97 199.17 291.59 193.92C291.79 193.52 291.81 192.56 291.7 191.19C291.99 191.47 292.54 194.96 293.25 200.49C296.5 225.88 303.05 294.43 303.05 294.43L303.06 294.42Z" fill="url(#paint6_linear_234_8941)"/>
<path d="M256.5 165.24L255.34 169.77L255.26 170.08L254.98 171.15C254.98 171.15 252.84 171.32 250 170.4C248.64 169.96 247.12 169.29 245.6 168.23C245.22 167.96 244.85 167.68 244.47 167.37C244.99 161.26 246.99 150.47 247.64 147.04C247.77 146.35 247.85 145.96 247.85 145.96L256.51 165.23L256.5 165.24Z" fill="url(#paint7_radial_234_8941)"/>
<path d="M256.88 170.55C256.88 170.55 255.64 176.02 254.06 181.08C252.93 184.65 251.64 188.03 250.49 189.12C247.69 191.77 240.49 196.13 240.49 196.13L236.32 187.51L242.48 182.11L244.9 171.32L245.6 168.24C250.3 171.51 254.98 171.16 254.98 171.16L255.26 170.08L256.88 170.55V170.55Z" fill="url(#paint8_linear_234_8941)"/>
<path d="M291.59 193.92C282.97 199.17 274.88 200.68 268.68 200.48C262.9 200.3 258.76 198.63 257.41 197.12C257.28 196.98 257.17 196.84 257.1 196.7C256.96 196.45 256.84 196.12 256.73 195.73C256.71 195.66 256.69 195.59 256.68 195.52C256.23 193.61 256.16 190.39 256.18 186.99C256.18 186.47 256.18 185.95 256.19 185.43C256.21 184.02 256.23 182.61 256.24 181.27V181.25C256.26 179.48 256.25 177.86 256.17 176.56C256.14 175.98 256.09 175.47 256.03 175.04C256 174.88 255.98 174.73 255.95 174.59C255.94 174.54 255.93 174.49 255.91 174.44C255.74 173.69 255.41 172.55 254.96 171.16C254.56 169.87 254.06 168.38 253.52 166.77C253.36 166.3 253.2 165.81 253.04 165.32C252.55 163.85 252.03 162.3 251.52 160.74C251.12 159.52 250.72 158.29 250.33 157.09C250.18 156.6 250.02 156.12 249.88 155.64C248.87 152.37 248.02 149.37 247.66 147.3C247.65 147.21 247.63 147.13 247.62 147.05C247.58 146.83 247.56 146.62 247.53 146.42C247.62 146.27 247.72 146.12 247.82 145.97C247.89 145.86 247.96 145.76 248.03 145.66C249.87 143.02 252.38 140.68 254.64 138.86C255.29 138.34 255.92 137.86 256.5 137.44C256.97 137.09 257.41 136.78 257.82 136.5L257.86 136.48L260.52 134.96C263.53 134.46 266.33 134.26 268.86 134.25C272.31 134.23 275.25 134.56 277.44 134.93C280.22 135.4 281.83 135.93 281.83 135.93L281.97 137.65L282.09 139.18L282.79 147.88L282.91 149.41L282.96 150.09C282.96 150.09 282.96 150.09 282.96 150.11C283.04 150.42 283.8 153.46 284.85 157.82C284.97 158.3 285.09 158.79 285.21 159.3C285.82 161.83 286.49 164.71 287.18 167.7C287.29 168.19 287.4 168.68 287.51 169.17C288.15 171.98 288.78 174.85 289.35 177.61C289.45 178.11 289.55 178.61 289.66 179.1C290.3 182.24 290.84 185.18 291.21 187.6C291.29 188.12 291.36 188.63 291.43 189.1C291.54 189.87 291.61 190.57 291.67 191.19C291.78 192.56 291.76 193.52 291.56 193.92H291.59Z" fill="url(#paint9_radial_234_8941)"/>
<g opacity="0.35">
<path opacity="0.25" d="M282.12 139.18L247.67 147.3C247.66 147.21 247.64 147.13 247.63 147.05C247.59 146.83 247.57 146.62 247.54 146.42C247.63 146.27 247.73 146.12 247.83 145.97C247.9 145.86 247.97 145.76 248.04 145.66L281.99 137.66L282.11 139.19L282.12 139.18Z" fill="black"/>
<path opacity="0.25" d="M282.95 149.41L250.35 157.1C250.2 156.61 250.04 156.13 249.9 155.65L282.83 147.89L282.95 149.42V149.41Z" fill="black"/>
<path opacity="0.25" d="M285.25 159.29L253.54 166.77C253.38 166.3 253.22 165.81 253.06 165.32L284.9 157.81C285.02 158.29 285.14 158.78 285.26 159.29H285.25Z" fill="black"/>
<path opacity="0.25" d="M287.55 169.17L256.18 176.56C256.15 175.98 256.1 175.47 256.04 175.04L287.22 167.69C287.33 168.18 287.44 168.67 287.55 169.16V169.17Z" fill="black"/>
<path opacity="0.25" d="M289.7 179.09L256.19 186.99C256.19 186.47 256.19 185.95 256.2 185.43L289.39 177.61C289.49 178.11 289.59 178.61 289.7 179.1V179.09Z" fill="black"/>
<path opacity="0.25" d="M291.47 189.1L257.42 197.12C257.29 196.98 257.18 196.84 257.11 196.7C256.97 196.45 256.85 196.12 256.74 195.73L291.25 187.59C291.33 188.11 291.4 188.62 291.47 189.09V189.1Z" fill="black"/>
</g>
<g style="mix-blend-mode:overlay" opacity="0.25">
<path d="M277.47 134.93C275.86 139.42 272.33 145.69 265.1 145.97C256.46 146.31 254.91 141.25 254.66 138.86C255.31 138.34 255.94 137.86 256.52 137.44C256.99 137.09 257.43 136.78 257.84 136.5L257.88 136.48L260.54 134.96C263.55 134.46 266.35 134.26 268.88 134.25C272.33 134.23 275.27 134.56 277.46 134.93H277.47Z" fill="black"/>
</g>
<path d="M265.1 141.36C264.42 142.01 263.56 142.4 262.56 142.22C260.71 141.9 259.55 140.63 258.9 139.63C258.49 139 258.28 138.46 258.22 138.3C258.21 138.27 258.2 138.25 258.2 138.25C258.2 138.25 257.77 138.49 256.7 138.3C256.65 138.3 256.59 138.28 256.54 138.27C256.5 138.27 256.49 138.26 256.49 138.26C255.68 138.09 254.53 137.69 252.99 136.82C250.71 135.54 248.9 133.59 247.54 131.7C247.24 131.28 246.96 130.86 246.7 130.46C246.41 130 246.14 129.55 245.9 129.13C251.08 128.61 254.5 124.93 256.02 120.53C256.02 120.53 258.86 125.21 259.49 125.21C260.12 125.21 260.63 120.79 262.52 120.73C262.84 120.72 263.12 120.79 263.35 120.94C264.45 121.64 264.44 124.04 263.54 126.54C262.97 128.12 265.31 129.45 265.82 129.58C265.85 129.58 265.89 129.56 265.95 129.5C266.08 131.16 266.37 132.98 266.63 134.33C266.77 135.04 266.91 135.63 267.01 135.98C267.33 137.09 266.63 139.92 265.09 141.37L265.1 141.36Z" fill="url(#paint10_linear_234_8941)"/>
<path d="M251.53 123.82C251.43 124.04 249.76 127.42 245.82 128.99C245.65 128.7 245.51 128.41 245.37 128.15C248.61 126.64 251.35 123.99 251.53 123.82V123.82Z" fill="#FFB7A9"/>
<path d="M269.72 119.26C268.92 124.26 266.6 128.85 265.95 129.48C265.89 129.54 265.85 129.56 265.82 129.56C265.31 129.43 262.97 128.1 263.54 126.52C264.62 123.51 264.42 120.65 262.53 120.71C260.64 120.77 260.13 125.19 259.5 125.19C258.87 125.19 256.03 120.51 256.03 120.51C254.5 124.91 251.09 128.59 245.91 129.11C245.73 129.13 245.54 129.15 245.36 129.16C245.53 129.1 245.68 129.04 245.84 128.98C249.78 127.41 251.45 124.03 251.55 123.81C251.38 123.98 248.64 126.63 245.39 128.14C243.82 128.87 242.13 129.33 240.56 129.11C240.44 128.96 240.32 128.8 240.22 128.63C235.66 121.84 238.94 107.69 245.33 104.98C245.33 104.98 243.67 104.5 241.68 103.03C244.52 103.65 251.77 101.14 254.29 101.47C256.8 101.8 257.6 103.79 257.6 103.79C257.6 103.79 260.77 100.93 264.37 102.13C262.6 102.07 261.27 104.21 261.27 104.21C261.27 104.21 268.03 105.73 269.67 112.87C270.14 114.89 270.07 117.11 269.72 119.26Z" fill="url(#paint11_linear_234_8941)"/>
<g style="mix-blend-mode:overlay" opacity="0.25">
<path d="M265.1 141.36C264.42 142.01 263.56 142.4 262.56 142.22C260.71 141.9 259.55 140.63 258.9 139.63C258.49 139 258.28 138.46 258.22 138.3C259.46 138.01 261.13 136.99 262.41 133.81C262.41 133.81 262.41 133.8 262.41 133.79C263.6 134.66 263.39 139.99 265.09 141.37L265.1 141.36Z" fill="black"/>
</g>
<g style="mix-blend-mode:overlay" opacity="0.25">
<path d="M245.83 128.99C245.66 128.7 245.52 128.41 245.38 128.15C248.62 126.64 251.36 123.99 251.54 123.82C251.44 124.04 249.77 127.42 245.83 128.99Z" fill="black"/>
</g>
<g style="mix-blend-mode:overlay" opacity="0.25">
<path d="M263.35 120.92C260.35 121.91 261.59 126.74 259.97 126.99C257.95 127.31 256.97 124.3 256.97 124.3C256.97 124.3 255.7 126.83 251.85 128.98C250.14 129.94 248.26 130.31 246.69 130.44C246.4 129.98 246.13 129.53 245.89 129.11C251.07 128.59 254.49 124.91 256.01 120.51C256.01 120.51 258.85 125.19 259.48 125.19C260.11 125.19 260.62 120.77 262.51 120.71C262.83 120.7 263.11 120.77 263.34 120.92H263.35Z" fill="black"/>
</g>
<g style="mix-blend-mode:overlay" opacity="0.25">
<path d="M262.42 133.8C261.14 136.98 259.48 138 258.23 138.29C258.22 138.26 258.21 138.24 258.21 138.24C258.21 138.24 257.74 138.51 256.55 138.26C256.51 138.26 256.5 138.25 256.5 138.25C255.69 138.08 254.54 137.68 253 136.81C250.72 135.53 248.91 133.58 247.55 131.69C247.93 131.65 248.48 131.77 249.17 132.31C250.73 133.54 252.15 136.38 255.71 137.14C259.24 137.9 261.52 135.12 262.43 133.79L262.42 133.8Z" fill="white"/>
</g>
<g style="mix-blend-mode:overlay" opacity="0.25">
<path d="M262.55 122.76C262.55 122.76 261.94 124.53 262.21 125.1C262.48 125.67 264.41 123.93 262.55 122.76Z" fill="black"/>
</g>
<g style="mix-blend-mode:overlay" opacity="0.25">
<path d="M269.72 119.26C268.92 124.26 266.6 128.85 265.95 129.48C265.89 129.54 265.85 129.56 265.82 129.56C265.31 129.43 262.97 128.1 263.54 126.52C264.62 123.51 264.42 120.65 262.53 120.71C260.64 120.77 260.13 125.19 259.5 125.19C258.87 125.19 256.03 120.51 256.03 120.51C254.5 124.91 251.09 128.59 245.91 129.11C245.73 129.13 245.54 129.15 245.36 129.16C245.53 129.1 245.68 129.04 245.84 128.98C249.78 127.41 251.45 124.03 251.55 123.81C251.38 123.98 248.64 126.63 245.39 128.14C243.82 128.87 242.13 129.33 240.56 129.11C240.44 128.96 240.32 128.8 240.22 128.63C243.73 126.27 252.49 119.73 252.34 113.22C254.04 116.44 253.67 120.51 253.67 120.51C253.67 120.51 255.27 116.25 254.99 112.64C257.55 116.24 258.24 119.37 258.24 119.37C258.24 119.37 258.59 115.77 262.76 115.1C266.93 114.44 267.11 120.5 267.11 120.5C267.11 120.5 268.55 118.32 266.94 114.44C268.03 115.08 268.98 116.99 269.74 119.25L269.72 119.26Z" fill="black"/>
</g>
<path d="M263.98 144.33C258.83 144.98 257.21 140.12 256.71 138.29C257.78 138.48 258.21 138.24 258.21 138.24C258.21 138.24 258.21 138.26 258.23 138.29C258.29 138.46 258.5 138.99 258.91 139.62C259.56 140.63 260.71 141.89 262.57 142.21C263.57 142.39 264.42 142 265.11 141.35C266.64 139.89 267.35 137.06 267.03 135.96C266.92 135.61 266.79 135.02 266.65 134.31C267.42 134.27 268.18 134.26 268.9 134.25C269.09 138.27 268.48 143.76 264 144.33H263.98Z" fill="white"/>
<g style="mix-blend-mode:overlay" opacity="0.25">
<path d="M256.26 181.25C256.29 178.41 256.26 175.94 255.97 174.59C255.81 173.84 255.46 172.65 254.99 171.16C254.99 171.16 252.85 171.32 250.01 170.41C250.46 168.77 250.41 165.56 250.5 161.55C250.54 159.93 250.37 157.52 250.01 156.06C251.93 160.39 254.46 165.3 255.35 169.77C256.31 174.58 256.64 178.85 256.27 181.26L256.26 181.25Z" fill="black"/>
</g>
<g style="mix-blend-mode:overlay" opacity="0.25">
<path d="M291.59 193.92C282.97 199.17 274.88 200.68 268.68 200.48C276.04 197.4 273.89 189.97 267.09 188.61C273.92 183.56 279.43 179.07 278.32 162.72C277.75 154.36 278.95 147.43 278.95 147.43L283 150.11C283.29 151.25 293.21 190.69 291.58 193.92H291.59Z" fill="black"/>
</g>
<path d="M291.77 155.64C291.75 155.78 291.71 155.92 291.65 156.06C291.28 156.86 290.16 157.65 288.77 158.37C286.32 159.64 283.04 160.68 281.59 161.11C281.13 161.25 280.86 161.32 280.86 161.32C280.86 161.32 276.77 153.2 276.04 146.11C275.57 141.61 276.46 137.53 280.63 136.21C281.01 136.09 281.43 135.99 281.87 135.92C281.87 135.92 287.6 139.1 291.59 154.88C291.65 155.13 291.71 155.38 291.77 155.63V155.64Z" fill="url(#paint12_radial_234_8941)"/>
<path d="M295.5 176.99C293.86 180.15 267.71 192.91 267.71 192.91C267.71 192.91 265.69 196.7 262.03 197.46C258.36 198.22 255.59 196.2 253.44 196.07C251.29 195.94 248.26 198.22 248.26 198.22C248.26 198.22 247.89 198.24 247.58 198.08C247.19 197.88 246.9 197.38 247.55 196.19C250.37 191.14 260.77 190.25 261.53 189.88C261.89 189.7 267.14 185.5 272.57 181.12C278.62 176.25 284.9 171.16 284.9 171.16L282.39 163.55L281.59 161.11C283.85 160.44 290.63 158.26 291.65 156.06C291.91 156.94 292.29 158.22 292.71 159.73C294.33 165.59 296.62 174.86 295.52 176.99H295.5Z" fill="url(#paint13_linear_234_8941)"/>
<g style="mix-blend-mode:overlay" opacity="0.25">
<path d="M292.7 159.73C289.33 162.88 284.74 163.47 282.39 163.55L281.59 161.11C283.85 160.44 290.63 158.26 291.65 156.06C291.91 156.94 292.29 158.22 292.71 159.73H292.7Z" fill="black"/>
</g>
<g style="mix-blend-mode:overlay" opacity="0.25">
<path d="M255.93 174.44C255.44 176.37 254.79 178.76 254.06 181.08C250.84 179.06 246.97 174.15 244.9 171.32L245.6 168.24C250.3 171.51 254.98 171.16 254.98 171.16C255.43 172.55 255.76 173.68 255.93 174.44V174.44Z" fill="black"/>
</g>
<path d="M302.164 293.621L288.054 294.818C286.756 294.928 285.792 296.071 285.902 297.369L285.93 297.698C286.041 298.997 287.183 299.96 288.481 299.85L302.591 298.653C303.889 298.543 304.853 297.401 304.743 296.102L304.715 295.773C304.605 294.474 303.462 293.511 302.164 293.621Z" fill="#A2A5AA"/>
<path d="M258.63 298C258.34 299.13 257.31 299.88 256.18 299.88C256.04 299.88 255.9 299.87 255.76 299.84C255.68 299.83 255.61 299.81 255.54 299.79L242.17 296.27L241.48 296.09C240.13 295.73 239.33 294.35 239.68 293C239.98 291.87 241 291.11 242.12 291.11C242.33 291.11 242.55 291.14 242.77 291.2L256.83 294.9C258.18 295.26 258.98 296.64 258.63 297.99V298Z" fill="#A2A5AA"/>
<path d="M256.98 314.95L232.22 313.56C232.22 313.56 222.36 313.44 230.95 308.38C232.47 307.49 233.81 306.49 235.01 305.46C238.9 302.08 241.17 298.27 242.19 296.27L247.05 297.55L255.55 299.79C255.63 299.81 255.7 299.83 255.77 299.84C256.38 304.89 256.98 314.95 256.98 314.95Z" fill="url(#paint14_radial_234_8941)"/>
<path d="M224 317.35C224 317.35 224.5 309.14 230.95 308.38C237.39 307.62 238.13 313.89 238.13 313.89L256.98 312.83L257.48 317.35H224V317.35Z" fill="white"/>
<path d="M247.04 297.56C246.29 300.02 244.17 305.6 240.17 307.25C238.23 305.7 236.24 305.43 235 305.47C238.89 302.09 241.16 298.28 242.18 296.28L247.04 297.56V297.56Z" fill="white"/>
<g style="mix-blend-mode:overlay" opacity="0.25">
<path d="M291.77 155.64C291.75 155.78 291.71 155.92 291.65 156.06C291.28 156.86 290.16 157.65 288.77 158.37C288.74 155.49 288.42 151.39 287.15 147.3C285.52 142.04 282.35 138.09 280.62 136.22C281 136.1 281.42 136 281.86 135.93C281.86 135.93 287.59 139.11 291.58 154.89C291.64 155.14 291.7 155.39 291.76 155.64H291.77Z" fill="black"/>
</g>
<g style="mix-blend-mode:overlay" opacity="0.25">
<path d="M285.59 200.5C285.59 200.5 285.21 205.99 290.71 207.13" stroke="white" stroke-width="1.18" stroke-linecap="round" stroke-linejoin="round"/>
</g>
<g style="mix-blend-mode:overlay" opacity="0.25">
<path d="M288.14 209.33L298.92 291.12" stroke="white" stroke-width="1.18" stroke-linecap="round" stroke-linejoin="round"/>
</g>
<g style="mix-blend-mode:overlay" opacity="0.25">
<path d="M271.48 221.72L253.2 291.12" stroke="white" stroke-width="1.18" stroke-linecap="round" stroke-linejoin="round"/>
</g>
<g style="mix-blend-mode:overlay" opacity="0.25">
<path d="M274.1 222.73C272.21 227.16 268.39 243.16 264.83 259.11C264.72 250.78 264.9 241.82 265.81 235.11C268.08 218.38 274.09 222.73 274.09 222.73H274.1Z" fill="black"/>
</g>
<g style="mix-blend-mode:overlay" opacity="0.25">
<path d="M293.25 200.49C268.97 212.61 257.91 197.82 257.43 197.15C258.8 198.65 262.92 200.3 268.68 200.49C274.88 200.68 282.97 199.18 291.59 193.93C291.79 193.53 291.81 192.57 291.7 191.2C291.99 191.48 292.54 194.97 293.25 200.5V200.49Z" fill="black"/>
</g>
<g style="mix-blend-mode:overlay" opacity="0.25">
<path d="M272.56 181.12C271.55 185.02 263.26 191.28 261.8 191.18C260.14 191.07 252.42 193.04 249.99 194.46C248.09 195.57 247.66 197.34 247.57 198.07C247.18 197.87 246.89 197.37 247.54 196.18C250.36 191.13 260.76 190.24 261.52 189.87C261.88 189.69 267.13 185.49 272.56 181.11V181.12Z" fill="white"/>
</g>
<path d="M117.15 210.69L115.22 209.34L113.29 207.98C113 208.4 106.03 218.42 98.99 236.97C92.52 254.03 84.81 281.82 84.81 317.35H89.53C89.53 250.88 116.87 211.08 117.15 210.68V210.69Z" fill="url(#paint15_linear_234_8941)"/>
<path d="M159.35 210.69L157.42 209.34L155.49 207.98C155.2 208.4 148.23 218.42 141.19 236.97C134.72 254.03 127.01 281.82 127.01 317.35H131.73C131.73 250.88 159.07 211.08 159.35 210.68V210.69Z" fill="url(#paint16_linear_234_8941)"/>
<path d="M294.63 210.69L296.56 209.34L298.49 207.98C298.78 208.4 305.75 218.42 312.79 236.97C319.26 254.03 326.97 281.82 326.97 317.35H322.25C322.25 250.88 294.91 211.08 294.63 210.68V210.69Z" fill="url(#paint17_linear_234_8941)"/>
<path d="M252.43 210.69L254.36 209.34L256.29 207.98C256.58 208.4 263.55 218.42 270.59 236.97C277.06 254.03 284.77 281.82 284.77 317.35H280.05C280.05 250.88 252.71 211.08 252.43 210.68V210.69Z" fill="url(#paint18_linear_234_8941)"/>
<path d="M298.92 208.36C298.92 209.22 298.57 210 298.01 210.57C297.44 211.14 296.67 211.48 295.81 211.48H84.23C82.51 211.48 81.11 210.08 81.11 208.36C81.11 207.5 81.46 206.72 82.02 206.15C82.59 205.58 83.36 205.24 84.22 205.24H295.79C297.51 205.24 298.91 206.64 298.91 208.36H298.92Z" fill="#6FDDD8"/>
<path d="M336.33 208.36C336.33 209.22 335.98 210 335.42 210.57C334.85 211.14 334.08 211.48 333.21 211.48H295.8C296.66 211.48 297.44 211.13 298 210.57C298.57 210 298.91 209.23 298.91 208.36C298.91 206.64 297.51 205.24 295.79 205.24H333.2C334.92 205.24 336.32 206.64 336.32 208.36H336.33Z" fill="#4FC8C2"/>
<path d="M157.42 113.82V182.29H108.06C104.15 182.29 100.99 179.12 100.99 175.22V120.9C100.99 116.99 104.16 113.83 108.06 113.83H157.42V113.82Z" fill="#EEF8FF"/>
<path d="M157.42 182.3V113.82C153.51 113.82 150.35 116.99 150.35 120.89V175.22C150.35 179.13 153.52 182.29 157.42 182.29V182.3Z" fill="#C7CFFF"/>
<g style="mix-blend-mode:overlay" opacity="0.25">
<path d="M132.85 182.3H115.53L119.82 155.74C119.82 155.74 121.85 151.81 126.31 154.35C129.93 156.43 128.23 174.34 132.85 182.3Z" fill="black"/>
</g>
<path d="M108.4 197.12L119.82 155.73C120.24 154.22 122.23 153.84 123.14 155.13C124.85 157.55 126.76 161.69 126.21 167.69C125.26 178.12 119.2 198.08 119.2 198.08L108.4 197.12V197.12Z" fill="#7EE2DD"/>
<path d="M128.7 196.04H105.6C103.06 196.04 101 198.1 101 200.64C101 203.18 103.06 205.24 105.6 205.24H128.7C131.24 205.24 133.3 203.18 133.3 200.64C133.3 198.1 131.24 196.04 128.7 196.04Z" fill="#00BEB4"/>
<path d="M126.31 142.12C126.31 145.4 124.58 148.06 122.46 148.06C120.34 148.06 118.61 145.4 118.61 142.12C118.61 138.84 120.34 136.18 122.46 136.18C124.58 136.18 126.31 138.84 126.31 142.12Z" fill="url(#paint19_radial_234_8941)"/>
<path d="M270.48 202.01L240.68 200.48V205.24H270.48V202.01Z" fill="#9CEDE9"/>
<path d="M247 205.24H189.55C188.88 205.24 188.29 204.78 188.13 204.12L179.07 166.78C178.85 165.86 179.54 164.98 180.49 164.98H237.94C238.61 164.98 239.2 165.44 239.36 166.1L248.42 203.44C248.64 204.36 247.95 205.24 247 205.24Z" fill="#BFE2E1"/>
<path d="M245.14 203.49H187.69C187.02 203.49 186.43 203.03 186.27 202.38L177.21 165.04C177.09 164.56 177.23 164.1 177.52 163.75C177.78 163.44 178.18 163.23 178.63 163.23H236.08C236.75 163.23 237.34 163.69 237.5 164.34L246.56 201.68C246.78 202.6 246.09 203.48 245.15 203.48L245.14 203.49Z" fill="#EEF8FF"/>
<path d="M214.02 183.98C214.77 185.95 214.06 188.05 212.43 188.68C210.8 189.31 208.86 188.22 208.11 186.25C207.36 184.28 208.07 182.18 209.7 181.55C211.33 180.92 213.27 182.01 214.02 183.98Z" fill="url(#paint20_radial_234_8941)"/>
<path d="M342.373 151.022C370.125 139.059 383.973 109.297 373.304 84.5472C362.635 59.7974 331.488 49.4321 303.736 61.3956C275.984 73.359 262.135 103.121 272.805 127.871C283.474 152.621 314.62 162.986 342.373 151.022Z" fill="url(#paint21_radial_234_8941)"/>
<path d="M351.44 73.43H281.7C279.38 73.43 277.5 75.3104 277.5 77.63V121.01C277.5 123.33 279.38 125.21 281.7 125.21H351.44C353.76 125.21 355.64 123.33 355.64 121.01V77.63C355.64 75.3104 353.76 73.43 351.44 73.43Z" fill="url(#paint22_radial_234_8941)"/>
<path d="M301.28 115.87C298.96 115.87 297.08 113.98 297.08 111.67V104.15C297.08 103.59 296.86 103.06 296.46 102.66L294.95 101.15C293.94 100.14 293.94 98.51 294.95 97.5L296.46 95.99C296.86 95.59 297.08 95.06 297.08 94.5V86.98C297.08 84.66 298.97 82.78 301.28 82.78V84.88C300.12 84.88 299.18 85.82 299.18 86.98V94.5C299.18 95.62 298.74 96.68 297.95 97.47L296.44 98.98C296.25 99.17 296.25 99.47 296.44 99.66L297.95 101.17C298.74 101.96 299.18 103.02 299.18 104.14V111.66C299.18 112.82 300.12 113.76 301.28 113.76V115.86V115.87Z" fill="#EEF8FF"/>
<path d="M331.86 82.77C334.18 82.77 336.06 84.66 336.06 86.97V94.49C336.06 95.05 336.28 95.58 336.68 95.98L338.19 97.49C339.2 98.5 339.2 100.13 338.19 101.14L336.68 102.65C336.28 103.05 336.06 103.58 336.06 104.14V111.66C336.06 113.98 334.17 115.86 331.86 115.86V113.76C333.02 113.76 333.96 112.82 333.96 111.66V104.14C333.96 103.02 334.4 101.96 335.19 101.17L336.7 99.66C336.89 99.47 336.89 99.17 336.7 98.98L335.19 97.47C334.4 96.68 333.96 95.62 333.96 94.5V86.98C333.96 85.82 333.02 84.88 331.86 84.88V82.78V82.77Z" fill="#EEF8FF"/>
<path d="M326.19 93.08C324.42 91.31 321.55 91.31 319.78 93.08L316.57 96.29L313.36 93.08C311.59 91.31 308.72 91.31 306.95 93.08C305.18 94.85 305.18 97.72 306.95 99.49L310.16 102.7L316.57 109.11L322.98 102.7L326.19 99.49C327.96 97.72 327.96 94.85 326.19 93.08Z" fill="#EEF8FF"/>
<path d="M266.43 77.18V75.16C266.43 74.39 265.81 73.77 265.04 73.77H261.73C261.47 72.67 261.03 71.63 260.45 70.69L262.79 68.35C263.33 67.81 263.33 66.93 262.79 66.39L261.36 64.96C260.82 64.42 259.94 64.42 259.4 64.96L257.06 67.3C256.12 66.72 255.09 66.28 253.98 66.02V62.71C253.98 61.94 253.36 61.32 252.59 61.32H250.57C249.8 61.32 249.18 61.94 249.18 62.71V66.02C248.08 66.28 247.04 66.72 246.1 67.3L243.76 64.96C243.22 64.42 242.34 64.42 241.8 64.96L240.37 66.39C239.83 66.93 239.83 67.81 240.37 68.35L242.71 70.69C242.13 71.63 241.69 72.66 241.43 73.77H238.12C237.35 73.77 236.73 74.39 236.73 75.16V77.18C236.73 77.95 237.35 78.57 238.12 78.57H241.43C241.69 79.67 242.13 80.71 242.71 81.65L240.37 83.99C239.83 84.53 239.83 85.41 240.37 85.95L241.8 87.38C242.34 87.92 243.22 87.92 243.76 87.38L246.1 85.04C247.04 85.62 248.07 86.06 249.18 86.32V89.63C249.18 90.4 249.8 91.02 250.57 91.02H252.59C253.36 91.02 253.98 90.4 253.98 89.63V86.32C255.08 86.06 256.12 85.62 257.06 85.04L259.4 87.38C259.94 87.92 260.82 87.92 261.36 87.38L262.79 85.95C263.33 85.41 263.33 84.53 262.79 83.99L260.45 81.65C261.03 80.71 261.47 79.68 261.73 78.57H265.04C265.81 78.57 266.43 77.95 266.43 77.18ZM252.55 81.82C248.64 82.47 245.28 79.12 245.93 75.2C246.32 72.83 248.23 70.92 250.61 70.52C254.52 69.87 257.88 73.22 257.23 77.14C256.84 79.51 254.93 81.42 252.56 81.82H252.55Z" fill="white"/>
<path d="M222.78 124.37C222.02 124.37 221.4 123.78 221.31 123.02C220.64 116.87 215.41 112.07 209.08 112.07C203.84 112.07 199.36 115.37 197.59 119.99L200.46 120.59L196.83 123.25L195.31 124.36H195.03L193.94 122.48L191.79 118.77L194.67 119.37C196.74 113.4 202.41 109.11 209.07 109.11C216.92 109.11 223.4 115.07 224.23 122.7C224.33 123.58 223.65 124.36 222.77 124.36L222.78 124.37Z" fill="white"/>
<path d="M195.15 128.44C195.91 128.44 196.53 129.03 196.62 129.79C197.29 135.94 202.52 140.74 208.85 140.74C214.09 140.74 218.57 137.44 220.34 132.82L217.47 132.22L221.1 129.56L222.62 128.45H222.9L223.99 130.33L226.14 134.04L223.26 133.44C221.19 139.41 215.52 143.7 208.86 143.7C201.01 143.7 194.53 137.74 193.7 130.11C193.6 129.23 194.28 128.45 195.16 128.45L195.15 128.44Z" fill="white"/>
<path d="M195.33 124.37L195.13 124.51L195.05 124.37H195.33Z" fill="white"/>
<g style="mix-blend-mode:overlay" opacity="0.28">
<path d="M338.94 326.43C338.72 331.08 334.71 334.67 330.05 334.67H84.08C79.16 334.67 75.2 330.57 75.43 325.6C75.54 323.28 76.6 321.21 78.21 319.74C79.82 318.26 81.99 317.36 84.32 317.36H330.29C335.21 317.36 339.17 321.46 338.93 326.43H338.94Z" fill="black"/>
</g>
<path d="M331.86 143.68H381.29" stroke="#00BEB4" stroke-width="2.95" stroke-linecap="round" stroke-linejoin="round"/>
<path d="M331.86 152.49H363.86" stroke="white" stroke-width="2.95" stroke-linecap="round" stroke-linejoin="round"/>
<path d="M331.86 161.1H363.86" stroke="white" stroke-width="2.95" stroke-linecap="round" stroke-linejoin="round"/>
<path style="mix-blend-mode:color-dodge" d="M331.86 161.3C336.726 161.3 340.67 157.356 340.67 152.49C340.67 147.624 336.726 143.68 331.86 143.68C326.994 143.68 323.05 147.624 323.05 152.49C323.05 157.356 326.994 161.3 331.86 161.3Z" fill="url(#paint23_radial_234_8941)"/>
<path d="M75.3 191.93H25.87" stroke="white" stroke-width="2.95" stroke-linecap="round" stroke-linejoin="round"/>
<path d="M75.3 200.74H43.31" stroke="#00BEB4" stroke-width="2.95" stroke-linecap="round" stroke-linejoin="round"/>
<path d="M75.3 209.35H43.31" stroke="#00BEB4" stroke-width="2.95" stroke-linecap="round" stroke-linejoin="round"/>
<path style="mix-blend-mode:color-dodge" d="M79.0015 199.913C83.4925 198.041 85.6155 192.883 83.7433 188.392C81.8711 183.901 76.7127 181.778 72.2217 183.65C67.7307 185.522 65.6077 190.68 67.4799 195.171C69.3521 199.662 74.5105 201.785 79.0015 199.913Z" fill="url(#paint24_radial_234_8941)"/>
<path d="M246.55 201.68L237.49 164.34C237.33 163.69 236.75 163.23 236.07 163.23H178.62C178.17 163.23 177.77 163.44 177.51 163.75L177.16 163.56L187.74 106.25C187.74 106.25 270.71 65.06 287.14 114.34C288.17 117.42 315.56 157.1 316.06 159.82C323.59 200.63 246.55 201.7 246.55 201.7V201.68Z" fill="url(#paint25_radial_234_8941)"/>
<path d="M111.18 172.13C111.18 172.13 95.54 255.18 162.73 264.17C213.75 270.99 269.49 230.09 255.58 202.87" stroke="#01C48F" stroke-width="1.18" stroke-linecap="round" stroke-linejoin="round"/>
<path d="M135.31 170.45C135.31 170.45 114.09 208.07 135.31 261.13C156.53 314.19 285.21 329.05 261.67 203.81" stroke="#01C48F" stroke-width="1.18" stroke-linecap="round" stroke-linejoin="round"/>
<path style="mix-blend-mode:color-dodge" d="M235.41 253.54C240.276 253.54 244.22 249.596 244.22 244.73C244.22 239.864 240.276 235.92 235.41 235.92C230.544 235.92 226.6 239.864 226.6 244.73C226.6 249.596 230.544 253.54 235.41 253.54Z" fill="url(#paint26_radial_234_8941)"/>
<path style="mix-blend-mode:color-dodge" d="M165.82 299.93C170.686 299.93 174.63 295.986 174.63 291.12C174.63 286.254 170.686 282.31 165.82 282.31C160.954 282.31 157.01 286.254 157.01 291.12C157.01 295.986 160.954 299.93 165.82 299.93Z" fill="url(#paint27_radial_234_8941)"/>
<defs>
<linearGradient id="paint0_linear_234_8941" x1="216.64" y1="25.72" x2="207.54" y2="328.18" gradientUnits="userSpaceOnUse">
<stop stop-color="#333333"/>
<stop offset="1" stop-color="#131313"/>
</linearGradient>
<radialGradient id="paint1_radial_234_8941" cx="0" cy="0" r="1" gradientUnits="userSpaceOnUse" gradientTransform="translate(66.8687 162.477) rotate(-23.32) scale(45.33 39.8904)">
<stop stop-color="#00BEB4"/>
<stop offset="0.107292" stop-color="#00BEB4" stop-opacity="0.892708"/>
<stop offset="0.445833" stop-color="#00BEB4" stop-opacity="0.559375"/>
<stop offset="0.669792" stop-color="#00BEB4" stop-opacity="0.333312"/>
<stop offset="0.794792" stop-color="#00BEB4" stop-opacity="0.207137"/>
<stop offset="1" stop-color="#00BEB4" stop-opacity="0"/>
</radialGradient>
<radialGradient id="paint2_radial_234_8941" cx="0" cy="0" r="1" gradientUnits="userSpaceOnUse" gradientTransform="translate(19.823 160.5) rotate(-38.9617) scale(87.0538 313.998)">
<stop stop-color="#00BEB4"/>
<stop offset="1" stop-color="#01C58A"/>
</radialGradient>
<radialGradient id="paint3_radial_234_8941" cx="0" cy="0" r="1" gradientUnits="userSpaceOnUse" gradientTransform="translate(79.41 164.81) scale(8.81 8.81)">
<stop stop-color="white"/>
<stop offset="1"/>
</radialGradient>
<radialGradient id="paint4_radial_234_8941" cx="0" cy="0" r="1" gradientUnits="userSpaceOnUse" gradientTransform="translate(82.2139 27.7948) rotate(-2.33015) scale(118.637 35.5541)">
<stop stop-color="#00BEB4"/>
<stop offset="1" stop-color="#01C58A"/>
</radialGradient>
<radialGradient id="paint5_radial_234_8941" cx="0" cy="0" r="1" gradientUnits="userSpaceOnUse" gradientTransform="translate(293.832 311.012) rotate(-31.5656) scale(17.2151 57.3651)">
<stop stop-color="#00BEB4"/>
<stop offset="1" stop-color="#01C58A"/>
</radialGradient>
<linearGradient id="paint6_linear_234_8941" x1="279.34" y1="181.69" x2="273.65" y2="275.68" gradientUnits="userSpaceOnUse">
<stop stop-color="#2B2B2B"/>
<stop offset="1" stop-color="#111111"/>
</linearGradient>
<radialGradient id="paint7_radial_234_8941" cx="0" cy="0" r="1" gradientUnits="userSpaceOnUse" gradientTransform="translate(247.059 165.849) rotate(-64.4646) scale(20.5057 58.8397)">
<stop stop-color="#00BEB4"/>
<stop offset="1" stop-color="#01C58A"/>
</radialGradient>
<linearGradient id="paint8_linear_234_8941" x1="252.37" y1="163.82" x2="240.43" y2="197.93" gradientUnits="userSpaceOnUse">
<stop stop-color="#F78B7C"/>
<stop offset="1" stop-color="#FFB7A9"/>
</linearGradient>
<radialGradient id="paint9_radial_234_8941" cx="0" cy="0" r="1" gradientUnits="userSpaceOnUse" gradientTransform="translate(257.034 186.53) rotate(-56.2853) scale(58.4712 199.156)">
<stop stop-color="#00BEB4"/>
<stop offset="1" stop-color="#01C58A"/>
</radialGradient>
<linearGradient id="paint10_linear_234_8941" x1="258.34" y1="123.43" x2="255.12" y2="140.3" gradientUnits="userSpaceOnUse">
<stop stop-color="#F78B7C"/>
<stop offset="1" stop-color="#FFB7A9"/>
</linearGradient>
<linearGradient id="paint11_linear_234_8941" x1="252.34" y1="109.26" x2="255.75" y2="127.64" gradientUnits="userSpaceOnUse">
<stop stop-color="#2F1706"/>
<stop offset="1" stop-color="#1F0F04"/>
</linearGradient>
<radialGradient id="paint12_radial_234_8941" cx="0" cy="0" r="1" gradientUnits="userSpaceOnUse" gradientTransform="translate(279.333 155.965) rotate(-58.046) scale(21.9781 72.8063)">
<stop stop-color="#00BEB4"/>
<stop offset="1" stop-color="#01C58A"/>
</radialGradient>
<linearGradient id="paint13_linear_234_8941" x1="290.03" y1="141.11" x2="268.42" y2="194.17" gradientUnits="userSpaceOnUse">
<stop stop-color="#F78B7C"/>
<stop offset="1" stop-color="#FFB7A9"/>
</linearGradient>
<radialGradient id="paint14_radial_234_8941" cx="0" cy="0" r="1" gradientUnits="userSpaceOnUse" gradientTransform="translate(233.788 311.012) rotate(-32.3041) scale(25.6623 85.5131)">
<stop stop-color="#00BEB4"/>
<stop offset="1" stop-color="#01C58A"/>
</radialGradient>
<linearGradient id="paint15_linear_234_8941" x1="131.13" y1="176.19" x2="87.84" y2="294.71" gradientUnits="userSpaceOnUse">
<stop stop-color="#00BEB4"/>
<stop offset="1" stop-color="#D6FBF9"/>
</linearGradient>
<linearGradient id="paint16_linear_234_8941" x1="173.33" y1="176.19" x2="130.04" y2="294.71" gradientUnits="userSpaceOnUse">
<stop stop-color="#00BEB4"/>
<stop offset="1" stop-color="#D6FBF9"/>
</linearGradient>
<linearGradient id="paint17_linear_234_8941" x1="340.95" y1="176.19" x2="297.66" y2="294.71" gradientUnits="userSpaceOnUse">
<stop stop-color="#00BEB4"/>
<stop offset="1" stop-color="#D6FBF9"/>
</linearGradient>
<linearGradient id="paint18_linear_234_8941" x1="298.75" y1="176.19" x2="255.46" y2="294.71" gradientUnits="userSpaceOnUse">
<stop stop-color="#00BEB4"/>
<stop offset="1" stop-color="#D6FBF9"/>
</linearGradient>
<radialGradient id="paint19_radial_234_8941" cx="0" cy="0" r="1" gradientUnits="userSpaceOnUse" gradientTransform="translate(120.265 145.555) rotate(-57.0508) scale(10.3937 34.9958)">
<stop stop-color="#00BEB4"/>
<stop offset="1" stop-color="#01C58A"/>
</radialGradient>
<radialGradient id="paint20_radial_234_8941" cx="0" cy="0" r="1" gradientUnits="userSpaceOnUse" gradientTransform="translate(209.21 187.28) rotate(-49.0038) scale(7.28299 26.6019)">
<stop stop-color="#00BEB4"/>
<stop offset="1" stop-color="#01C58A"/>
</radialGradient>
<radialGradient id="paint21_radial_234_8941" cx="0" cy="0" r="1" gradientUnits="userSpaceOnUse" gradientTransform="translate(323.125 106.398) rotate(-23.32) scale(45.33 39.8904)">
<stop stop-color="#00BEB4"/>
<stop offset="0.107292" stop-color="#00BEB4" stop-opacity="0.892708"/>
<stop offset="0.445833" stop-color="#00BEB4" stop-opacity="0.559375"/>
<stop offset="0.669792" stop-color="#00BEB4" stop-opacity="0.333312"/>
<stop offset="0.794792" stop-color="#00BEB4" stop-opacity="0.207137"/>
<stop offset="1" stop-color="#00BEB4" stop-opacity="0"/>
</radialGradient>
<radialGradient id="paint22_radial_234_8941" cx="0" cy="0" r="1" gradientUnits="userSpaceOnUse" gradientTransform="translate(294.3 114.293) rotate(-33.5307) scale(68.8202 233.775)">
<stop stop-color="#00BEB4"/>
<stop offset="1" stop-color="#01C58A"/>
</radialGradient>
<radialGradient id="paint23_radial_234_8941" cx="0" cy="0" r="1" gradientUnits="userSpaceOnUse" gradientTransform="translate(331.86 152.49) scale(8.81001 8.81001)">
<stop stop-color="white"/>
<stop offset="1"/>
</radialGradient>
<radialGradient id="paint24_radial_234_8941" cx="0" cy="0" r="1" gradientUnits="userSpaceOnUse" gradientTransform="translate(75.6116 191.782) rotate(-22.63) scale(8.81)">
<stop stop-color="white"/>
<stop offset="1"/>
</radialGradient>
<radialGradient id="paint25_radial_234_8941" cx="0" cy="0" r="1" gradientUnits="userSpaceOnUse" gradientTransform="translate(139.67 313.63) scale(232.68 232.68)">
<stop stop-color="#00BEB4"/>
<stop offset="1" stop-color="#00FFFF" stop-opacity="0"/>
</radialGradient>
<radialGradient id="paint26_radial_234_8941" cx="0" cy="0" r="1" gradientUnits="userSpaceOnUse" gradientTransform="translate(235.41 244.73) scale(8.81)">
<stop stop-color="white"/>
<stop offset="1"/>
</radialGradient>
<radialGradient id="paint27_radial_234_8941" cx="0" cy="0" r="1" gradientUnits="userSpaceOnUse" gradientTransform="translate(165.82 291.12) scale(8.81001 8.81)">
<stop stop-color="white"/>
<stop offset="1"/>
</radialGradient>
</defs>
</svg>
